<?xml version="1.0" encoding="utf-8"?>
<!-- Generator: Adobe Illustrator 16.0.0, SVG Export Plug-In . SVG Version: 6.00 Build 0)  -->
<!DOCTYPE svg PUBLIC "-//W3C//DTD SVG 1.1//EN" "http://www.w3.org/Graphics/SVG/1.1/DTD/svg11.dtd">
<svg version="1.1" id="Layer_1" xmlns="http://www.w3.org/2000/svg" xmlns:xlink="http://www.w3.org/1999/xlink" x="0px" y="0px"
	 width="1261.72px" height="362px" viewBox="0 172.196 1261.72 362" enable-background="new 0 172.196 1261.72 362"
	 xml:space="preserve">
<g id="Layer_2">
	<rect x="0" y="172" fill="#4DC0C1" width="1261.72" height="361.317"/>
	<g>
		<rect x="19.545" y="246.614" fill="#43BBBA" width="160.646" height="270.745"/>
		<rect x="29.516" y="238.79" fill="#64C2C6" width="140.704" height="18.281"/>
		<g>
			<g>
				<rect x="47.38" y="280.336" fill="#6DC8CD" width="33.791" height="51.656"/>
				<rect x="42.672" y="330.192" fill="#72CED1" width="43.208" height="5.401"/>
				<polygon fill="#72CED1" points="86.711,272.305 41.841,272.305 41.841,277.706 45.303,277.706 45.303,282.276 83.249,282.276 
					83.249,277.706 86.711,277.706 				"/>
			</g>
			<g>
				<rect x="115.517" y="280.336" fill="#6DC8CD" width="33.792" height="51.656"/>
				<rect x="110.808" y="330.192" fill="#72CED1" width="43.209" height="5.401"/>
				<polygon fill="#72CED1" points="154.848,272.305 109.978,272.305 109.978,277.706 113.439,277.706 113.439,282.276 
					151.385,282.276 151.385,277.706 154.848,277.706 				"/>
			</g>
			<g>
				<rect x="47.38" y="367.584" fill="#6DC8CD" width="33.791" height="51.656"/>
				<rect x="42.672" y="417.44" fill="#72CED1" width="43.208" height="5.4"/>
				<polygon fill="#72CED1" points="86.711,359.552 41.841,359.552 41.841,364.954 45.303,364.954 45.303,369.524 83.249,369.524 
					83.249,364.954 86.711,364.954 				"/>
			</g>
			<g>
				<rect x="115.517" y="367.584" fill="#6DC8CD" width="33.792" height="51.656"/>
				<rect x="110.808" y="417.44" fill="#72CED1" width="43.209" height="5.4"/>
				<polygon fill="#72CED1" points="154.848,359.552 109.978,359.552 109.978,364.954 113.439,364.954 113.439,369.524 
					151.385,369.524 151.385,364.954 154.848,364.954 				"/>
			</g>
		</g>
	</g>
	<g>
		<rect x="466.585" y="263.232" fill="#43BBBA" width="160.645" height="251.221"/>
		<rect x="476.556" y="255.409" fill="#64C2C6" width="140.703" height="18.28"/>
		<g>
			<g>
				<rect x="494.42" y="296.955" fill="#6DC8CD" width="33.792" height="51.657"/>
				<rect x="489.711" y="346.811" fill="#72CED1" width="43.209" height="5.4"/>
				<polygon fill="#72CED1" points="533.751,288.923 488.881,288.923 488.881,294.324 492.342,294.324 492.342,298.895 
					530.29,298.895 530.29,294.324 533.751,294.324 				"/>
			</g>
			<g>
				<rect x="562.556" y="296.955" fill="#6DC8CD" width="33.792" height="51.657"/>
				<rect x="557.848" y="346.811" fill="#72CED1" width="43.208" height="5.4"/>
				<polygon fill="#72CED1" points="601.887,288.923 557.017,288.923 557.017,294.324 560.479,294.324 560.479,298.895 
					598.425,298.895 598.425,294.324 601.887,294.324 				"/>
			</g>
			<g>
				<rect x="494.42" y="384.203" fill="#6DC8CD" width="33.792" height="51.656"/>
				<rect x="489.711" y="434.058" fill="#72CED1" width="43.209" height="5.401"/>
				<polygon fill="#72CED1" points="533.751,376.17 488.881,376.17 488.881,381.572 492.342,381.572 492.342,386.142 
					530.29,386.142 530.29,381.572 533.751,381.572 				"/>
			</g>
			<g>
				<rect x="562.556" y="384.203" fill="#6DC8CD" width="33.792" height="51.656"/>
				<rect x="557.848" y="434.058" fill="#72CED1" width="43.208" height="5.401"/>
				<polygon fill="#72CED1" points="601.887,376.17 557.017,376.17 557.017,381.572 560.479,381.572 560.479,386.142 
					598.425,386.142 598.425,381.572 601.887,381.572 				"/>
			</g>
		</g>
	</g>
	<g>
		<rect x="1138.552" y="263.232" fill="#43BBBA" width="123.168" height="251.221"/>
		<rect x="1148.523" y="255.409" fill="#64C2C6" width="113.197" height="18.28"/>
		<g>
			<g>
				<rect x="1166.386" y="296.955" fill="#6DC8CD" width="33.792" height="51.657"/>
				<rect x="1161.678" y="346.811" fill="#72CED1" width="43.209" height="5.4"/>
				<polygon fill="#72CED1" points="1205.717,288.923 1160.848,288.923 1160.848,294.324 1164.309,294.324 1164.309,298.895 
					1202.256,298.895 1202.256,294.324 1205.717,294.324 				"/>
			</g>
			<g>
				<rect x="1234.523" y="296.955" fill="#6DC8CD" width="27.197" height="51.657"/>
				<rect x="1229.815" y="346.811" fill="#72CED1" width="31.905" height="5.4"/>
				<polygon fill="#72CED1" points="1261.72,298.895 1261.72,288.923 1228.984,288.923 1228.984,294.324 1232.446,294.324 
					1232.446,298.895 				"/>
			</g>
			<g>
				<rect x="1166.386" y="384.203" fill="#6DC8CD" width="33.792" height="51.656"/>
				<rect x="1161.678" y="434.058" fill="#72CED1" width="43.209" height="5.401"/>
				<polygon fill="#72CED1" points="1205.717,376.17 1160.848,376.17 1160.848,381.572 1164.309,381.572 1164.309,386.142 
					1202.256,386.142 1202.256,381.572 1205.717,381.572 				"/>
			</g>
			<g>
				<rect x="1234.523" y="384.203" fill="#6DC8CD" width="27.197" height="51.656"/>
				<rect x="1229.815" y="434.058" fill="#72CED1" width="31.905" height="5.401"/>
				<polygon fill="#72CED1" points="1261.72,386.142 1261.72,376.17 1228.984,376.17 1228.984,381.572 1232.446,381.572 
					1232.446,386.142 				"/>
			</g>
		</g>
	</g>
	<g>
		<rect x="912.794" y="249.937" fill="#43BBBA" width="138.91" height="270.12"/>
		<rect x="922.765" y="242.114" fill="#64C2C6" width="128.939" height="18.28"/>
		<g>
			<g>
				<rect x="940.628" y="283.66" fill="#6DC8CD" width="33.792" height="51.657"/>
				<rect x="935.92" y="333.516" fill="#72CED1" width="43.209" height="5.4"/>
				<polygon fill="#72CED1" points="979.959,275.628 935.09,275.628 935.09,281.03 938.551,281.03 938.551,285.6 976.499,285.6 
					976.499,281.03 979.959,281.03 				"/>
			</g>
			<g>
				<rect x="1008.765" y="283.66" fill="#6DC8CD" width="33.792" height="51.657"/>
				<rect x="1004.057" y="333.516" fill="#72CED1" width="43.208" height="5.4"/>
				<polygon fill="#72CED1" points="1048.096,275.628 1003.226,275.628 1003.226,281.03 1006.688,281.03 1006.688,285.6 
					1044.634,285.6 1044.634,281.03 1048.096,281.03 				"/>
			</g>
			<g>
				<rect x="940.628" y="370.908" fill="#6DC8CD" width="33.792" height="51.656"/>
				<rect x="935.92" y="420.763" fill="#72CED1" width="43.209" height="5.401"/>
				<polygon fill="#72CED1" points="979.959,362.875 935.09,362.875 935.09,368.277 938.551,368.277 938.551,372.847 
					976.499,372.847 976.499,368.277 979.959,368.277 				"/>
			</g>
			<g>
				<rect x="1008.765" y="370.908" fill="#6DC8CD" width="33.792" height="51.656"/>
				<rect x="1004.057" y="420.763" fill="#72CED1" width="43.208" height="5.401"/>
				<polygon fill="#72CED1" points="1048.096,362.875 1003.226,362.875 1003.226,368.277 1006.688,368.277 1006.688,372.847 
					1044.634,372.847 1044.634,368.277 1048.096,368.277 				"/>
			</g>
		</g>
	</g>
	<g>
		<rect x="202.349" y="319.735" fill="#43BBBA" width="240.415" height="191.873"/>
		<rect x="212.321" y="311.912" fill="#64C2C6" width="218.811" height="18.28"/>
		<g>
			<g>
				<rect x="230.185" y="353.458" fill="#6DC8CD" width="33.792" height="51.656"/>
				<rect x="225.477" y="403.314" fill="#72CED1" width="43.208" height="5.401"/>
				<polygon fill="#72CED1" points="269.516,345.426 224.646,345.426 224.646,350.828 228.107,350.828 228.107,355.398 
					266.054,355.398 266.054,350.828 269.516,350.828 				"/>
			</g>
			<g>
				<rect x="300.813" y="353.458" fill="#6DC8CD" width="33.792" height="51.656"/>
				<rect x="296.105" y="403.314" fill="#72CED1" width="43.208" height="5.401"/>
				<polygon fill="#72CED1" points="340.145,345.426 295.274,345.426 295.274,350.828 298.736,350.828 298.736,355.398 
					336.683,355.398 336.683,350.828 340.145,350.828 				"/>
			</g>
			<g>
				<rect x="230.185" y="440.706" fill="#6DC8CD" width="33.792" height="51.656"/>
				<rect x="225.477" y="490.561" fill="#72CED1" width="43.208" height="5.401"/>
				<polygon fill="#72CED1" points="269.516,432.674 224.646,432.674 224.646,438.075 228.107,438.075 228.107,442.645 
					266.054,442.645 266.054,438.075 269.516,438.075 				"/>
			</g>
			<g>
				<rect x="300.813" y="440.706" fill="#6DC8CD" width="33.792" height="51.656"/>
				<rect x="296.105" y="490.561" fill="#72CED1" width="43.208" height="5.401"/>
				<polygon fill="#72CED1" points="340.145,432.674 295.274,432.674 295.274,438.075 298.736,438.075 298.736,442.645 
					336.683,442.645 336.683,438.075 340.145,438.075 				"/>
			</g>
			<g>
				<rect x="372.273" y="353.458" fill="#6DC8CD" width="33.792" height="51.656"/>
				<rect x="367.565" y="403.314" fill="#72CED1" width="43.208" height="5.401"/>
				<polygon fill="#72CED1" points="411.604,345.426 366.734,345.426 366.734,350.828 370.196,350.828 370.196,355.398 
					408.143,355.398 408.143,350.828 411.604,350.828 				"/>
			</g>
			<g>
				<rect x="372.273" y="440.706" fill="#6DC8CD" width="33.792" height="51.656"/>
				<rect x="367.565" y="490.561" fill="#72CED1" width="43.208" height="5.401"/>
				<polygon fill="#72CED1" points="411.604,432.674 366.734,432.674 366.734,438.075 370.196,438.075 370.196,442.645 
					408.143,442.645 408.143,438.075 411.604,438.075 				"/>
			</g>
		</g>
	</g>
	<g>
		<rect x="651.377" y="291.07" fill="#43BBBA" width="240.416" height="215.554"/>
		<rect x="661.349" y="283.247" fill="#64C2C6" width="218.811" height="18.28"/>
		<g>
			<g>
				<rect x="679.213" y="324.792" fill="#6DC8CD" width="33.792" height="51.657"/>
				<rect x="674.506" y="374.649" fill="#72CED1" width="43.207" height="5.4"/>
				<polygon fill="#72CED1" points="718.544,316.761 673.674,316.761 673.674,322.163 677.136,322.163 677.136,326.732 
					715.083,326.732 715.083,322.163 718.544,322.163 				"/>
			</g>
			<g>
				<rect x="749.842" y="324.792" fill="#6DC8CD" width="33.792" height="51.657"/>
				<rect x="745.134" y="374.649" fill="#72CED1" width="43.208" height="5.4"/>
				<polygon fill="#72CED1" points="789.173,316.761 744.303,316.761 744.303,322.163 747.764,322.163 747.764,326.732 
					785.711,326.732 785.711,322.163 789.173,322.163 				"/>
			</g>
			<g>
				<rect x="679.213" y="412.041" fill="#6DC8CD" width="33.792" height="51.656"/>
				<rect x="674.506" y="461.896" fill="#72CED1" width="43.207" height="5.401"/>
				<polygon fill="#72CED1" points="718.544,404.008 673.674,404.008 673.674,409.41 677.136,409.41 677.136,413.98 715.083,413.98 
					715.083,409.41 718.544,409.41 				"/>
			</g>
			<g>
				<rect x="749.842" y="412.041" fill="#6DC8CD" width="33.792" height="51.656"/>
				<rect x="745.134" y="461.896" fill="#72CED1" width="43.208" height="5.401"/>
				<polygon fill="#72CED1" points="789.173,404.008 744.303,404.008 744.303,409.41 747.764,409.41 747.764,413.98 785.711,413.98 
					785.711,409.41 789.173,409.41 				"/>
			</g>
			<g>
				<rect x="821.302" y="324.792" fill="#6DC8CD" width="33.792" height="51.657"/>
				<rect x="816.594" y="374.649" fill="#72CED1" width="43.208" height="5.4"/>
				<polygon fill="#72CED1" points="860.633,316.761 815.763,316.761 815.763,322.163 819.225,322.163 819.225,326.732 
					857.171,326.732 857.171,322.163 860.633,322.163 				"/>
			</g>
			<g>
				<rect x="821.302" y="412.041" fill="#6DC8CD" width="33.792" height="51.656"/>
				<rect x="816.594" y="461.896" fill="#72CED1" width="43.208" height="5.401"/>
				<polygon fill="#72CED1" points="860.633,404.008 815.763,404.008 815.763,409.41 819.225,409.41 819.225,413.98 857.171,413.98 
					857.171,409.41 860.633,409.41 				"/>
			</g>
		</g>
	</g>
	<path fill="#5F908B" d="M705.884,494.229c-0.463,0-0.855,0.274-1.045,0.668h-1.121v-5.834c0-0.338-0.013-0.672-0.034-1.001h1.2v-3
		h-1.709c-0.978-3.529-3.108-5.999-4.95-5.999h-0.702c0.014-0.055,0.029-0.108,0.029-0.167c0-0.645-0.896-1.167-2-1.167
		c-1.104,0-2,0.522-2,1.167c0,0.062,0.016,0.122,0.031,0.182c-1.812,0.108-3.867,2.535-4.822,5.984h-2.377v3h1.668v6.835h-1.455
		c-0.188-0.394-0.582-0.668-1.045-0.668c-0.646,0-1.168,0.522-1.168,1.167v3.333c0,0.646,0.522,1.167,1.168,1.167
		c0.391,0,0.72-0.205,0.932-0.5h1.568v12.333h-2.168v3h19.5v-3h-1.832v-12.333h1.4c0.212,0.295,0.541,0.5,0.932,0.5
		c0.646,0,1.168-0.521,1.168-1.167v-3.333C707.052,494.751,706.529,494.229,705.884,494.229z"/>
	<path fill="#6ED184" d="M55.128,484.144c-8.514,0.145-21.75-2.75-23.5-12.75s-0.25-23.75,5.25-35.75s15-15,27.5-9.5
		s19.75,19.25,16.25,35.25S69.878,483.894,55.128,484.144z"/>
	<path fill="#3E9DA5" d="M59.128,514.29c0,0,0-24.75,0-29s9.5-18.25,10.75-19.5s2.5-4,0-5.25s-3.25-1.25-5.25,1.75s-5,6.5-5,6.5
		s0.5-18.5,0.75-30.25c-4.25,7-8.25,20-8.75,37.25c0,0-1.75-0.75-4.5-1.75s-3.5-0.75-4,1.25s0.25,3,3,4s5,1.25,5.5,5
		s-0.25,29.75-0.25,29.75L59.128,514.29z"/>
	<g>
		<path fill="#62CC8E" d="M736.384,477.394c-6.945-1.001-16.25-3.75-18.75-14.5s0.75-28.75,10.75-32.25s18-1.75,24,3
			s10.25,12.75,10.25,24S764.134,481.394,736.384,477.394z"/>
		<path fill="#3BA4AC" d="M743.119,515.327c0,0-0.734-33.933,1.016-37.433s2-5.25,2-5.25l-2.75,1.25c0,0-0.5-9.75-1.75-15
			s-2.5-10.75-2-21.5c0,0-4.25,3-4,11s-1,19.25-1,19.25s-2-3-7-7.75c0,0,2.75,7,4.5,10.25s5.011,8.293,3.069,45.183
			C740.454,518.077,743.119,515.327,743.119,515.327z"/>
	</g>
	<rect x="0" y="514.222" fill="#71586D" width="1261.72" height="15.494"/>
	<rect x="0" y="523.472" fill="#898995" width="1261.72" height="10.902"/>
	<g>
		<g>
			<polygon fill="#FEFEFE" points="613.202,385.966 656.844,395.127 653.679,404.956 611.536,395.127 			"/>
			<polygon fill="#F4CDA5" points="611.869,392.295 613.202,385.966 614.701,390.463 			"/>
			<polygon fill="#F4CDA5" points="653.679,398.459 656.844,395.127 655.012,402.624 			"/>
			<polygon fill="#ECA83A" points="656.511,402.624 653.679,398.459 652.68,402.291 			"/>
			<polygon fill="#ECA83A" points="610.204,392.129 614.701,390.463 614.034,394.128 			"/>
			<polygon fill="#F4CDA5" points="598.876,438.104 610.204,392.129 656.511,402.624 647.182,449.431 			"/>
			<g>
				<path fill="#E8BC91" d="M630.285,417.854c-0.218,0-0.438-0.007-0.664-0.02c-2.858-0.153-5.165-1.19-6.858-3.08
					c-3.018-3.367-3.214-8.466-3.062-11.205l2.661,0.147c-0.104,1.873-0.081,6.53,2.384,9.28c1.222,1.361,2.863,2.081,5.02,2.197
					c7.06,0.379,9.284-7.172,9.307-7.248l2.564,0.723C640.72,411.897,637.188,417.854,630.285,417.854z"/>
			</g>
			<circle fill="#290C1A" cx="621.447" cy="402.707" r="2.415"/>
			<circle fill="#290C1A" cx="640.936" cy="406.955" r="2.415"/>
			<g>
				<path fill="#FFFFFF" d="M630.729,416.631c-0.218,0-0.438-0.006-0.663-0.019c-2.858-0.153-5.167-1.19-6.859-3.08
					c-3.018-3.368-3.214-8.466-3.062-11.205c0.041-0.735,0.673-1.295,1.405-1.257c0.735,0.041,1.298,0.67,1.257,1.404
					c-0.104,1.872-0.08,6.529,2.385,9.279c1.221,1.361,2.861,2.081,5.018,2.197c7.065,0.371,9.285-7.174,9.305-7.248
					c0.201-0.708,0.938-1.123,1.646-0.921c0.708,0.199,1.12,0.935,0.921,1.644C641.165,410.675,637.631,416.631,630.729,416.631z"/>
			</g>
			<path fill="#F89E03" d="M634.135,413.062c0,0-1.111-1.11-1.777-1.11s-4.219,4.221-4.219,5.33c0,1.11,0.221,7.773,0.221,8.885
				c0,1.11,0.667,1.776,1.778,1.776c1.11,0,3.776-0.223,4.664-0.223s1.555-1.11,1.555-2.888c0-1.776-0.443-9.105-0.443-9.105
				s-2.277,0.333-3.611,0.111c-0.443-1.11,0.5-2.332,0.5-2.332L634.135,413.062z"/>
		</g>
		<g>
			<polygon fill="#FCA004" points="584.384,479.748 630.192,491.908 641.519,447.932 595.377,436.938 			"/>
			<polygon fill="#FEFCF6" points="611.203,450.763 619.865,453.262 621.864,444.766 613.202,442.768 			"/>
		</g>
		<g>
			<g>
				<path fill="#315871" d="M641.61,499.739l-45.501-11.138l1.427-5.825l39.785,9.738c2.748-10.378,12.136-45.857,13.445-51.283
					c2.13-8.83,6.606-9.583,14.125-7.885l-1.322,5.85c-1.041-0.236-4.208-0.951-5.253-0.42c-0.598,0.305-1.177,1.604-1.722,3.861
					c-1.545,6.4-13.714,52.306-14.23,54.258L641.61,499.739z"/>
			</g>
			<polygon fill="#315871" points="666.894,433.497 665.339,440.714 682.663,444.934 684.218,437.604 			"/>
			<circle fill="#2E5B73" cx="640.353" cy="503.068" r="12.826"/>
			<circle fill="#F5CFA5" cx="640.353" cy="503.068" r="6.829"/>
		</g>
	</g>
	<g>
		<path fill="#2D5A72" d="M1118.403,493.977c0,6.711-5.44,12.15-12.149,12.15H776.867c-6.71,0-12.149-5.439-12.149-12.15V269.437
			c0-6.709,5.439-12.149,12.149-12.149h329.387c6.709,0,12.149,5.44,12.149,12.149V493.977z"/>
		<path fill="#1B4456" d="M1118.403,342.314v-18.991h-33.693h-0.058h-40.271h-0.059h-40.271h-0.057H963.72h-0.057h-40.272h-0.057
			h-40.272h-0.058h-40.272h-0.057h-40.273h-0.057h-37.628v14.742c3.026,4.665,8.306,7.757,14.315,7.757h6.353
			c9.075,0,16.49-7.046,16.988-15.921c0.499,8.875,7.913,15.921,16.989,15.921h6.353c9.075,0,16.489-7.046,16.987-15.921
			c0.5,8.875,7.914,15.921,16.989,15.921h6.353c9.075,0,16.49-7.046,16.988-15.921c0.499,8.875,7.913,15.921,16.988,15.921h6.354
			c9.076,0,16.491-7.048,16.987-15.925c0.497,8.877,7.912,15.925,16.989,15.925h6.353c9.077,0,16.491-7.048,16.988-15.925
			c0.497,8.877,7.911,15.925,16.989,15.925h6.353c9.076,0,16.491-7.048,16.987-15.925c0.497,8.877,7.912,15.925,16.989,15.925h6.353
			c9.075,0,16.49-7.046,16.988-15.921c0.498,8.875,7.913,15.921,16.987,15.921h6.354c9.074,0,16.488-7.046,16.987-15.921
			c0.499,8.875,7.913,15.921,16.987,15.921h6.354C1111.931,345.821,1115.529,344.511,1118.403,342.314z"/>
		<g>
			<rect x="778.667" y="317.136" fill="#FFFFFF" width="326.236" height="163.343"/>
			<path fill="#EAF7F7" d="M1104.903,323.323h-20.193h-0.058h-40.271h-0.059h-40.271h-0.057H963.72h-0.057h-40.272h-0.057h-40.272
				h-0.058h-40.272h-0.057h-40.273h-0.057h-23.679v22.489c0.122,0.003,0.243,0.01,0.366,0.01h6.353
				c9.075,0,16.49-7.046,16.988-15.921c0.499,8.875,7.913,15.921,16.989,15.921h6.353c9.075,0,16.489-7.046,16.987-15.921
				c0.5,8.875,7.914,15.921,16.989,15.921h6.353c9.075,0,16.49-7.046,16.988-15.921c0.499,8.875,7.913,15.921,16.988,15.921h6.354
				c9.076,0,16.491-7.048,16.987-15.925c0.497,8.877,7.912,15.925,16.989,15.925h6.353c9.077,0,16.491-7.048,16.988-15.925
				c0.497,8.877,7.911,15.925,16.989,15.925h6.353c9.076,0,16.491-7.048,16.987-15.925c0.497,8.877,7.912,15.925,16.989,15.925
				h6.353c9.075,0,16.49-7.046,16.988-15.921c0.498,8.875,7.913,15.921,16.987,15.921h6.354c9.074,0,16.488-7.046,16.987-15.921
				c0.499,8.875,7.913,15.921,16.987,15.921h3.235V323.323z"/>
			<g>
				<rect x="788.903" y="313.536" fill="#BAE6E7" width="203.167" height="154.231"/>
				<rect x="1012.854" y="313.536" fill="#BAE6E7" width="77.087" height="154.231"/>
				<circle fill="#419EA7" cx="1053.155" cy="367.871" r="2.363"/>
				<g>
					<polygon fill="#419EA7" points="1044.679,376.963 1043.744,375.99 1053.144,366.944 1062.049,375.135 1061.135,376.129 
						1053.166,368.797 					"/>
				</g>
				<g>
					<path fill="#ED0E00" d="M933.361,399.257c0,4.101-3.323,7.425-7.424,7.425h-71.21c-4.101,0-7.425-3.324-7.425-7.425V385.42
						c0-4.101,3.324-7.425,7.425-7.425h71.21c4.101,0,7.424,3.324,7.424,7.425V399.257z"/>
					<g>
						<path fill="#FFFFFF" d="M864.766,398.294c-0.507,0.253-1.521,0.506-2.817,0.506c-3.008,0-5.271-1.898-5.271-5.397
							c0-3.34,2.264-5.604,5.57-5.604c1.33,0,2.169,0.285,2.534,0.475l-0.333,1.125c-0.521-0.254-1.266-0.445-2.152-0.445
							c-2.501,0-4.163,1.6-4.163,4.402c0,2.611,1.503,4.29,4.1,4.29c0.839,0,1.694-0.175,2.247-0.443L864.766,398.294z"/>
						<path fill="#FFFFFF" d="M875.279,393.198c0,3.672-2.232,5.619-4.955,5.619c-2.816,0-4.796-2.186-4.796-5.414
							c0-3.389,2.105-5.604,4.954-5.604C873.395,387.799,875.279,390.032,875.279,393.198z M867,393.372
							c0,2.279,1.234,4.321,3.403,4.321c2.185,0,3.419-2.011,3.419-4.432c0-2.121-1.107-4.339-3.403-4.339
							C868.14,388.922,867,391.028,867,393.372z"/>
						<path fill="#FFFFFF" d="M886.06,393.958c-0.078-1.488-0.174-3.277-0.158-4.606h-0.047c-0.364,1.25-0.808,2.58-1.346,4.052
							l-1.884,5.177h-1.044l-1.727-5.081c-0.508-1.504-0.935-2.882-1.234-4.147h-0.032c-0.031,1.329-0.11,3.118-0.206,4.717
							l-0.285,4.574h-1.313l0.745-10.67h1.757l1.82,5.161c0.443,1.313,0.808,2.484,1.076,3.593h0.048
							c0.269-1.076,0.648-2.247,1.123-3.593l1.899-5.161h1.758l0.665,10.67h-1.346L886.06,393.958z"/>
						<path fill="#FFFFFF" d="M889.798,388.1c0.664-0.111,1.535-0.207,2.644-0.207c1.361,0,2.358,0.317,2.992,0.887
							c0.585,0.507,0.935,1.282,0.935,2.232c0,0.966-0.286,1.726-0.824,2.279c-0.728,0.775-1.916,1.172-3.26,1.172
							c-0.412,0-0.793-0.016-1.109-0.096v4.273h-1.377V388.1z M891.175,393.245c0.301,0.079,0.681,0.11,1.14,0.11
							c1.662,0,2.675-0.808,2.675-2.279c0-1.409-0.998-2.09-2.517-2.09c-0.603,0-1.061,0.048-1.298,0.11V393.245L891.175,393.245z"
							/>
						<path fill="#FFFFFF" d="M898.22,388.117c0.697-0.144,1.695-0.223,2.645-0.223c1.473,0,2.422,0.269,3.087,0.871
							c0.538,0.476,0.839,1.203,0.839,2.026c0,1.409-0.887,2.343-2.012,2.723v0.047c0.824,0.285,1.314,1.045,1.568,2.152
							c0.349,1.488,0.602,2.518,0.822,2.929h-1.424c-0.175-0.3-0.411-1.219-0.713-2.548c-0.316-1.473-0.887-2.026-2.137-2.074
							h-1.298v4.623h-1.378V388.117L898.22,388.117z M899.598,392.975h1.409c1.473,0,2.405-0.807,2.405-2.026
							c0-1.376-0.997-1.979-2.453-1.995c-0.665,0-1.14,0.064-1.361,0.128V392.975L899.598,392.975z"/>
						<path fill="#FFFFFF" d="M908.544,395.288l-1.109,3.355h-1.425l3.626-10.67h1.662l3.641,10.67h-1.473l-1.139-3.355H908.544z
							 M912.042,394.21l-1.044-3.07c-0.238-0.698-0.396-1.331-0.555-1.948h-0.031c-0.157,0.634-0.333,1.282-0.539,1.931
							l-1.044,3.088H912.042L912.042,394.21z"/>
						<path fill="#FFFFFF" d="M916.508,388.117c0.696-0.144,1.694-0.223,2.644-0.223c1.473,0,2.422,0.269,3.087,0.871
							c0.538,0.476,0.839,1.203,0.839,2.026c0,1.409-0.887,2.343-2.011,2.723v0.047c0.823,0.285,1.313,1.045,1.566,2.152
							c0.349,1.488,0.603,2.518,0.823,2.929h-1.424c-0.175-0.3-0.412-1.219-0.713-2.548c-0.316-1.473-0.886-2.026-2.137-2.074
							h-1.299v4.623h-1.377L916.508,388.117L916.508,388.117z M917.886,392.975h1.408c1.472,0,2.405-0.807,2.405-2.026
							c0-1.376-0.997-1.979-2.453-1.995c-0.665,0-1.14,0.064-1.361,0.128L917.886,392.975L917.886,392.975z"/>
					</g>
				</g>
				<polygon fill="#38404C" points="929.972,409.381 935.709,436.381 942.796,424.231 954.271,419.844 				"/>
				<g>
					<path fill="#F98701" d="M860.281,438.912h-56.359c-1.484,0-2.308,1.149-1.828,2.556l7.705,22.563
						c0.479,1.405,2.088,2.556,3.572,2.556h36.111c1.485,0,3.141-1.133,3.682-2.516L862,441.427
						C862.541,440.043,861.767,438.912,860.281,438.912z M819.501,461.355c0,0.373-0.301,0.675-0.675,0.675h-3.486
						c-0.373,0-0.675-0.302-0.675-0.675v-15.862c0-0.373,0.302-0.675,0.675-0.675h3.486c0.374,0,0.675,0.302,0.675,0.675V461.355z
						 M829.344,461.355c0,0.373-0.301,0.675-0.675,0.675h-3.486c-0.373,0-0.676-0.302-0.676-0.675v-15.862
						c0-0.373,0.303-0.675,0.676-0.675h3.486c0.374,0,0.675,0.302,0.675,0.675V461.355z M839.188,461.355
						c0,0.373-0.302,0.675-0.675,0.675h-3.486c-0.373,0-0.676-0.302-0.676-0.675v-15.862c0-0.373,0.303-0.675,0.676-0.675h3.486
						c0.373,0,0.675,0.302,0.675,0.675V461.355z M849.031,461.355c0,0.373-0.301,0.675-0.675,0.675h-3.487
						c-0.373,0-0.675-0.302-0.675-0.675v-15.862c0-0.373,0.302-0.675,0.675-0.675h3.487c0.374,0,0.675,0.302,0.675,0.675V461.355z"
						/>
					<path fill="#DA7300" d="M860.281,438.912h-56.359c-1.484,0-2.308,1.149-1.828,2.556l0.992,2.902h57.767l1.148-2.942
						C862.541,440.043,861.767,438.912,860.281,438.912z"/>
					<path fill="#F98701" d="M866.413,442.231c0,0.373-0.302,0.676-0.675,0.676h-66.821c-0.373,0-0.675-0.303-0.675-0.676v-7.087
						c0-0.373,0.302-0.675,0.675-0.675h66.821c0.373,0,0.675,0.302,0.675,0.675V442.231z"/>
					<path fill="#FFF9F8" d="M851.602,436.829c0.16,0.337,0.018,0.74-0.319,0.9l-3.352,1.596c-0.338,0.159-0.74,0.018-0.9-0.319
						l-11.789-23.999c-0.161-0.338-0.018-0.74,0.318-0.9l3.353-1.596c0.337-0.159,0.739-0.018,0.899,0.319L851.602,436.829z"/>
					<circle fill="#44263C" cx="847.709" cy="434.946" r="1.772"/>
					<path fill="#FFF9F8" d="M811.617,436.829c-0.16,0.337-0.017,0.74,0.319,0.9l3.353,1.596c0.337,0.159,0.74,0.018,0.9-0.319
						l11.789-23.999c0.16-0.338,0.018-0.74-0.319-0.9l-3.352-1.596c-0.337-0.159-0.74-0.018-0.9,0.319L811.617,436.829z"/>
					<circle fill="#44263C" cx="815.509" cy="434.946" r="1.772"/>
				</g>
				
					<line fill="none" stroke="#FFFFFF" stroke-width="2.0249" stroke-linecap="round" stroke-miterlimit="10" x1="894.761" y1="361.234" x2="894.761" y2="372.708"/>
				
					<line fill="none" stroke="#FFFFFF" stroke-width="2.0249" stroke-linecap="round" stroke-miterlimit="10" x1="894.761" y1="413.208" x2="894.761" y2="424.682"/>
				
					<line fill="none" stroke="#FFFFFF" stroke-width="2.0249" stroke-linecap="round" stroke-miterlimit="10" x1="911.446" y1="364.626" x2="905.411" y2="374.385"/>
				
					<line fill="none" stroke="#FFFFFF" stroke-width="2.0249" stroke-linecap="round" stroke-miterlimit="10" x1="884.112" y1="411.53" x2="878.077" y2="421.289"/>
				
					<line fill="none" stroke="#FFFFFF" stroke-width="2.0249" stroke-linecap="round" stroke-miterlimit="10" x1="877.742" y1="364.834" x2="883.899" y2="374.519"/>
				
					<line fill="none" stroke="#FFFFFF" stroke-width="2.0249" stroke-linecap="round" stroke-miterlimit="10" x1="905.625" y1="411.396" x2="911.781" y2="421.08"/>
				<polygon fill="#DFF2F7" points="990.382,466.08 926.935,466.08 990.382,407.695 				"/>
				<polygon fill="#DFF2F7" points="1088.253,466.08 1024.806,466.08 1088.253,407.695 				"/>
				<rect x="1032.062" y="374.452" fill="#F9FCFC" width="41.342" height="21.094"/>
				<g>
					<path fill="#3A3A3A" d="M1037.533,386.181l-0.664,2.015h-0.856l2.177-6.406h0.998l2.187,6.406h-0.885l-0.685-2.015H1037.533z
						 M1039.634,385.535l-0.628-1.845c-0.144-0.418-0.237-0.798-0.332-1.168h-0.02c-0.095,0.38-0.199,0.77-0.323,1.16l-0.627,1.854
						L1039.634,385.535L1039.634,385.535z"/>
					<path fill="#3A3A3A" d="M1042.316,381.875c0.361-0.075,0.932-0.132,1.512-0.132c0.827,0,1.359,0.143,1.758,0.465
						c0.333,0.247,0.532,0.628,0.532,1.131c0,0.619-0.407,1.16-1.083,1.408v0.018c0.608,0.152,1.321,0.657,1.321,1.607
						c0,0.551-0.218,0.97-0.542,1.283c-0.447,0.408-1.169,0.6-2.215,0.6c-0.57,0-1.008-0.039-1.283-0.076V381.875z
						 M1043.143,384.499h0.752c0.874,0,1.388-0.456,1.388-1.074c0-0.75-0.57-1.046-1.407-1.046c-0.38,0-0.599,0.028-0.731,0.057
						L1043.143,384.499L1043.143,384.499z M1043.143,387.569c0.162,0.029,0.399,0.038,0.694,0.038c0.856,0,1.646-0.313,1.646-1.245
						c0-0.875-0.752-1.236-1.655-1.236h-0.685V387.569z"/>
					<path fill="#3A3A3A" d="M1048.298,381.79v6.406h-0.828v-6.406H1048.298z"/>
					<path fill="#3A3A3A" d="M1053.06,385.193h-2.489v2.31h2.774v0.693h-3.603v-6.406h3.46v0.693h-2.632v2.024h2.489V385.193z"/>
					<path fill="#3A3A3A" d="M1054.421,381.875c0.419-0.085,1.018-0.132,1.589-0.132c0.884,0,1.454,0.161,1.854,0.522
						c0.323,0.284,0.503,0.723,0.503,1.217c0,0.846-0.531,1.406-1.207,1.635v0.028c0.494,0.171,0.789,0.628,0.941,1.293
						c0.21,0.895,0.361,1.512,0.494,1.758h-0.855c-0.104-0.181-0.247-0.731-0.429-1.53c-0.189-0.884-0.531-1.217-1.282-1.245h-0.779
						v2.775h-0.828V381.875L1054.421,381.875z M1055.249,384.793h0.846c0.885,0,1.444-0.485,1.444-1.217
						c0-0.828-0.598-1.189-1.473-1.197c-0.399,0-0.684,0.038-0.817,0.075V384.793z"/>
					<path fill="#3A3A3A" d="M1060.84,382.493h-1.948v-0.703h4.742v0.703h-1.958v5.703h-0.836V382.493z"/>
					<path fill="#3A3A3A" d="M1069.568,384.926c0,2.206-1.34,3.375-2.975,3.375c-1.692,0-2.881-1.312-2.881-3.251
						c0-2.035,1.264-3.365,2.975-3.365C1068.437,381.684,1069.568,383.025,1069.568,384.926z M1064.596,385.031
						c0,1.368,0.742,2.596,2.044,2.596c1.311,0,2.053-1.208,2.053-2.661c0-1.275-0.664-2.605-2.043-2.605
						C1065.282,382.36,1064.596,383.624,1064.596,385.031z"/>
				</g>
				<circle fill="#2D5A72" cx="1079.367" cy="405.895" r="3.487"/>
				<path fill="#AEE1E3" d="M992.07,323.323h-28.35h-0.057h-40.272h-0.057h-40.272h-0.058h-40.272h-0.057h-40.273h-0.057h-13.442
					v22.134c7.406-1.544,13.038-7.86,13.471-15.556c0.499,8.875,7.913,15.921,16.989,15.921h6.353
					c9.075,0,16.489-7.046,16.987-15.921c0.5,8.875,7.914,15.921,16.989,15.921h6.353c9.075,0,16.49-7.046,16.988-15.921
					c0.499,8.875,7.913,15.921,16.988,15.921h6.354c9.076,0,16.491-7.048,16.987-15.925c0.497,8.877,7.912,15.925,16.989,15.925
					h6.353c9.077,0,16.491-7.048,16.988-15.925c0.497,8.877,7.911,15.925,16.989,15.925h6.353c1.754,0,3.444-0.266,5.036-0.755
					V323.323z"/>
				<path fill="#AEE1E3" d="M1089.941,323.323h-5.231h-0.058h-40.271h-0.059h-31.468v20.433c2.422,1.314,5.199,2.066,8.156,2.066
					h6.353c9.075,0,16.49-7.046,16.988-15.921c0.498,8.875,7.913,15.921,16.987,15.921h6.354c9.074,0,16.488-7.046,16.987-15.921
					c0.249,4.43,2.22,8.402,5.261,11.271V323.323z"/>
			</g>
		</g>
		<g>
			<rect x="728.718" y="496.904" fill="#ADBBC4" width="415.332" height="9.674"/>
			<path fill="#2D5A72" d="M1143.601,505.454c0,4.846-2.874,8.774-6.418,8.774H735.137c-3.545,0-6.419-3.929-6.419-8.774v-3.825
				h414.884L1143.601,505.454L1143.601,505.454z"/>
			<rect x="728.718" y="499.378" fill="#FFFFFF" width="415.332" height="9.45"/>
			<path fill="#2D5A72" d="M961.134,504.441c0,0.933-0.756,1.688-1.688,1.688h-45.674c-0.933,0-1.688-0.755-1.688-1.688l0,0
				c0-0.932,0.755-1.688,1.688-1.688h45.674C960.378,502.753,961.134,503.509,961.134,504.441L961.134,504.441z"/>
		</g>
		<g>
			<path fill="#F65C5D" d="M842.675,315.898v5.625c0,9.319,7.618,16.874,17.017,16.874h6.353c9.399,0,17.018-7.555,17.018-16.874
				v-5.625H842.675z"/>
			<path fill="#FFFFFF" d="M883.004,315.898v5.625c0,9.319,7.617,16.874,17.017,16.874h6.354c9.398,0,17.017-7.555,17.017-16.874
				v-5.625H883.004z"/>
			<path fill="#F65C5D" d="M923.334,315.898v5.625c0,9.319,7.617,16.874,17.017,16.874h6.353c9.398,0,17.017-7.555,17.017-16.874
				v-5.625H923.334z"/>
			<path fill="#FFFFFF" d="M963.664,315.898v5.625c0,9.319,7.617,16.874,17.018,16.874h6.353c9.397,0,17.017-7.555,17.017-16.874
				v-5.625H963.664z"/>
			<path fill="#F65C5D" d="M1003.994,315.898v5.625c0,9.319,7.617,16.874,17.017,16.874h6.353c9.399,0,17.018-7.555,17.018-16.874
				v-5.625H1003.994z"/>
			<path fill="#FFFFFF" d="M1044.322,315.898v5.625c0,9.319,7.618,16.874,17.017,16.874h6.354c9.398,0,17.017-7.555,17.017-16.874
				v-5.625H1044.322z"/>
			<path fill="#F65C5D" d="M1084.652,315.898v5.625c0,9.319,7.618,16.874,17.016,16.874h6.354c9.398,0,17.017-7.555,17.017-16.874
				v-5.625H1084.652z"/>
			<path fill="#FFFFFF" d="M802.345,315.898v5.625c0,9.319,7.619,16.874,17.018,16.874h6.353c9.398,0,17.017-7.555,17.017-16.874
				v-5.625H802.345z"/>
			<path fill="#F65C5D" d="M762.016,315.898v5.625c0,9.319,7.618,16.874,17.017,16.874h6.353c9.399,0,17.017-7.555,17.017-16.874
				v-5.625H762.016z"/>
			<rect x="1044.322" y="270.675" fill="#FA8182" width="40.388" height="45.561"/>
			<polygon fill="#DF3F01" points="762.016,316.236 802.402,316.236 802.402,270.675 779.791,270.675 			"/>
			<rect x="802.345" y="270.675" fill="#FA8182" width="40.387" height="45.561"/>
			<rect x="842.675" y="270.675" fill="#DF3F01" width="40.387" height="45.561"/>
			<rect x="883.004" y="270.675" fill="#FA8182" width="40.387" height="45.561"/>
			<rect x="923.334" y="270.675" fill="#DF3F01" width="40.386" height="45.561"/>
			<rect x="963.664" y="270.675" fill="#FA8182" width="40.387" height="45.561"/>
			<rect x="1003.994" y="270.675" fill="#DF3F01" width="40.387" height="45.561"/>
			<polygon fill="#DF3F01" points="1084.652,316.236 1125.039,316.236 1110.19,270.675 1084.652,270.675 			"/>
		</g>
	</g>
</g>
<g>
	<path fill="#ECBB93" d="M977.819,330.409c0,0-22.82-18.99-25.373-21.224s-3.511-8.937,2.234-16.277s13.724-2.872,15.958-1.277
		c2.234,1.597,6.702,4.788,6.702,4.788L977.819,330.409z"/>
	<path fill="#F6D5AA" d="M1026.492,500.045c0,0-16.277-3.51-30.001-14.043c-13.725-10.532-26.811-27.131-32.235-41.173
		c0,0-2.235-6.383-6.702-13.724c-4.469-7.34-15.959-28.405-15.959-28.405l59.045,1.276l70.217,24.256l19.788,54.259
		L1026.492,500.045z"/>
	<path fill="#ECBB93" d="M978.618,410.999c0,0-7.341,1.596-13.086,10.532c-5.744,8.938-6.064,12.129-6.064,12.129
		s-15.319-25.534-17.873-30.959c1.915-6.384,12.447-7.022,12.447-7.022l2.873-9.256c0,0-4.788-8.617-5.106-11.49
		c-0.32-2.872,14.362-16.596,14.362-16.596l-7.022-12.767l21.065-7.181l106.92,38.778l11.171,23.618l-42.13,45.96
		c0,0-7.979-4.469-58.407-9.257C983.724,419.936,978.618,410.999,978.618,410.999z"/>
	<path fill="#285B62" d="M1082.346,430.627c0,3.966-3.216,7.182-7.182,7.182h-92.558c-3.966,0-7.182-3.216-7.182-7.182V271.364
		c0-3.967,3.216-7.181,7.182-7.181h92.558c3.966,0,7.181,3.214,7.181,7.181L1082.346,430.627L1082.346,430.627z"/>
	<g>
		<rect x="982.766" y="275.992" fill="#37BBC9" width="92.559" height="141.71"/>
		<g>
			<rect x="995.737" y="325.104" fill="#E4D5CC" width="65.468" height="37.94"/>
			<rect x="1019.733" y="332.285" fill="#455B60" width="17.475" height="30.64"/>
			<rect x="1020.428" y="333.84" fill="#336C74" width="15.799" height="29.084"/>
			<rect x="994.42" y="362.446" fill="#E1392D" width="68.102" height="1.915"/>
			<rect x="992.385" y="364.122" fill="#D02528" width="72.171" height="1.915"/>
			<rect x="990.95" y="365.917" fill="#D02528" width="75.043" height="1.077"/>
			<g>
				<rect x="998.526" y="354.786" fill="#C3AC9D" width="19.748" height="1.197"/>
				<rect x="998.884" y="353.275" fill="#FFFDFD" width="19.03" height="1.346"/>
				<rect x="998.884" y="331.133" fill="#FFFDFD" width="19.03" height="1.346"/>
				<rect x="999.364" y="331.754" fill="#FFFDFD" width="18.072" height="21.886"/>
				<g>
					<rect x="1000.56" y="337.26" fill="#9EC7C1" width="15.679" height="15.901"/>
					<rect x="1001.159" y="337.67" fill="#A1D6D6" width="14.721" height="14.961"/>
				</g>
				<g>
					<rect x="1000.56" y="333.071" fill="#9EC7C1" width="15.679" height="2.805"/>
					<rect x="1001.159" y="333.481" fill="#A1D6D6" width="14.721" height="1.864"/>
				</g>
			</g>
			<g>
				<rect x="1039.04" y="354.786" fill="#C3AC9D" width="19.748" height="1.197"/>
				<rect x="1039.399" y="353.275" fill="#FFFDFD" width="19.029" height="1.346"/>
				<rect x="1039.399" y="331.133" fill="#FFFDFD" width="19.029" height="1.346"/>
				<rect x="1039.877" y="331.754" fill="#FFFDFD" width="18.072" height="21.886"/>
				<g>
					<rect x="1041.074" y="337.26" fill="#9EC7C1" width="15.679" height="15.901"/>
					<rect x="1041.672" y="337.67" fill="#A1D6D6" width="14.722" height="14.961"/>
				</g>
				<g>
					<rect x="1041.074" y="333.071" fill="#9EC7C1" width="15.679" height="2.805"/>
					<rect x="1041.672" y="333.481" fill="#A1D6D6" width="14.722" height="1.864"/>
				</g>
			</g>
			<rect x="997.329" y="291.112" fill="#FEE4D9" width="63.674" height="15.44"/>
			<rect x="1000.201" y="293.746" fill="#BA2225" width="57.929" height="10.173"/>
			<rect x="1001.039" y="294.543" fill="#EB4725" width="56.492" height="8.299"/>
			<g>
				<g>
					<path fill="#FFFDFD" d="M1002.106,321.552c-1.666,0-2.499,0-4.166,0c1.023-5.053,2.18-10.067,3.202-15.121
						c1.484,0,2.214,0.001,3.669,0.001C1004.007,311.493,1002.91,316.493,1002.106,321.552z"/>
					<path fill="#FFFDFD" d="M1010.439,321.553c-1.666,0-2.499,0-4.166,0c0.646-5.053,1.511-10.068,2.159-15.121
						c1.445,0,2.168,0,3.63,0C1011.568,311.478,1010.934,316.507,1010.439,321.553z"/>
					<path fill="#FFFDFD" d="M1018.771,321.553c-1.666,0-2.499,0-4.165,0c0.365-5.042,0.787-10.08,1.154-15.121
						c1.5,0,2.274,0,3.812,0C1019.304,311.472,1019.039,316.512,1018.771,321.553z"/>
					<path fill="#FFFDFD" d="M1027.104,321.553c-1.667,0-2.5,0-4.166,0c0.16-5.041,0.319-10.081,0.48-15.121
						c1.538,0,2.308,0,3.846,0C1027.209,311.473,1027.157,316.512,1027.104,321.553z"/>
					<path fill="#FFFDFD" d="M1035.436,321.553c-1.666,0-2.5,0-4.166,0c-0.053-5.041-0.106-10.081-0.16-15.121
						c1.538,0,2.307,0,3.846,0C1035.116,311.472,1035.275,316.512,1035.436,321.553z"/>
					<path fill="#FFFDFD" d="M1043.768,321.553c-1.666,0-2.5,0-4.167,0c-0.267-5.041-0.532-10.081-0.8-15.121
						c1.538,0,2.311,0,3.812,0C1042.981,311.473,1043.401,316.511,1043.768,321.553z"/>
					<path fill="#FFFDFD" d="M1052.1,321.553c-1.666,0-2.5,0-4.166,0c-0.495-5.046-1.119-10.075-1.615-15.121
						c1.465,0,2.189,0,3.641,0C1050.601,311.484,1051.457,316.5,1052.1,321.553z"/>
					<path fill="#FFFDFD" d="M1060.432,321.553c-1.666,0-2.5,0-4.166,0c-0.797-5.06-1.88-10.062-2.678-15.121
						c1.458,0,2.19,0,3.678,0C1058.278,311.485,1059.419,316.5,1060.432,321.553z"/>
				</g>
				<g>
					<path fill="#EB4725" d="M997.94,321.553c-1.666,0-2.499,0-4.166,0c1.146-5.058,2.45-10.063,3.594-15.121
						c1.538,0,2.289,0,3.773,0C1000.12,311.485,998.963,316.5,997.94,321.553z"/>
					<path fill="#EB4725" d="M1006.273,321.553c-1.666,0-2.5,0-4.166,0c0.803-5.061,1.9-10.061,2.704-15.121
						c1.454,0,2.175,0,3.621,0C1007.784,311.484,1006.92,316.5,1006.273,321.553z"/>
					<path fill="#EB4725" d="M1014.606,321.553c-1.667,0-2.501,0-4.166,0c0.494-5.046,1.128-10.075,1.623-15.121
						c1.462,0,2.197,0,3.697,0C1015.393,311.473,1014.972,316.511,1014.606,321.553z"/>
					<path fill="#EB4725" d="M1022.937,321.553c-1.666,0-2.499,0-4.166,0c0.268-5.041,0.534-10.081,0.802-15.121
						c1.537,0,2.307,0,3.845,0C1023.257,311.472,1023.098,316.512,1022.937,321.553z"/>
					<path fill="#EB4725" d="M1031.27,321.553c-1.666,0-2.5,0-4.166,0c0.054-5.041,0.105-10.08,0.16-15.121c1.538,0,2.307,0,3.845,0
						C1031.163,311.472,1031.215,316.512,1031.27,321.553z"/>
					<path fill="#EB4725" d="M1039.601,321.553c-1.665,0-2.499,0-4.165,0c-0.16-5.041-0.319-10.08-0.48-15.121
						c1.538,0,2.307,0,3.845,0C1039.069,311.472,1039.334,316.512,1039.601,321.553z"/>
					<path fill="#EB4725" d="M1047.934,321.553c-1.666,0-2.499,0-4.165,0c-0.37-5.041-0.787-10.08-1.153-15.121
						c1.501,0,2.238,0,3.703,0C1046.815,311.478,1047.439,316.507,1047.934,321.553z"/>
					<path fill="#EB4725" d="M1056.266,321.553c-1.666,0-2.5,0-4.166,0c-0.644-5.053-1.499-10.069-2.142-15.121
						c1.45,0,2.172,0,3.63,0C1054.386,311.492,1055.468,316.494,1056.266,321.553z"/>
					<path fill="#EB4725" d="M1064.598,321.553c-1.667,0-2.5,0-4.166,0c-1.013-5.053-2.154-10.068-3.166-15.121
						c1.486,0,2.238,0,3.775,0C1062.175,311.489,1063.463,316.497,1064.598,321.553z"/>
				</g>
			</g>
			<path fill="#C72C28" d="M993.858,321.512v3.83h0.006c0.069,1.729,1.614,3.112,3.515,3.112h1.695c1.284,0,2.404-0.634,3.02-1.576
				c0.615,0.942,1.735,1.576,3.021,1.576h1.695c1.284,0,2.404-0.634,3.02-1.576c0.615,0.942,1.735,1.576,3.02,1.576h1.695
				c1.285,0,2.405-0.634,3.021-1.576c0.615,0.942,1.735,1.576,3.021,1.576h1.695c1.283,0,2.404-0.634,3.02-1.576
				c0.615,0.942,1.734,1.576,3.02,1.576h1.695c1.285,0,2.405-0.634,3.021-1.576c0.615,0.942,1.735,1.576,3.02,1.576h1.695
				c1.284,0,2.404-0.634,3.02-1.576c0.615,0.942,1.735,1.576,3.021,1.576h1.695c1.284,0,2.404-0.634,3.02-1.576
				c0.615,0.942,1.735,1.576,3.02,1.576h1.695c1.285,0,2.405-0.634,3.021-1.576c0.614,0.942,1.735,1.576,3.02,1.576h1.695
				c1.9,0,3.445-1.384,3.515-3.112h0.004v-3.83H993.858z"/>
		</g>
		<g>
			<ellipse fill="#2D908E" cx="1028.05" cy="404.411" rx="21.235" ry="2.547"/>
			<g>
				<path fill="#336A72" d="M1042.53,399.668c0,2.38-1.929,4.309-4.309,4.309h-18.75c-2.381,0-4.31-1.929-4.31-4.309v-19.311
					c0-2.379,1.929-4.309,4.31-4.309h18.75c2.38,0,4.309,1.93,4.309,4.309V399.668z"/>
				<circle fill="#FFFFFF" cx="1024.138" cy="398.672" r="2.513"/>
				<circle fill="#FFFFFF" cx="1034.471" cy="398.672" r="2.513"/>
				<path fill="#FFFFFF" d="M1039.817,381.356v-1.436h-4.428v4.188h-18.232l4.493,10.853h15.216v-10.853h-0.041v-2.753H1039.817z
					 M1024.019,392.965h-1.517v-7.021h1.517V392.965z M1026.812,392.965h-1.517v-7.021h1.517V392.965z M1029.604,392.965h-1.516
					v-7.021h1.516V392.965z M1032.397,392.965h-1.517v-7.021h1.517V392.965z M1035.189,392.965h-1.516v-7.021h1.516V392.965z"/>
			</g>
		</g>
	</g>
	<path fill="#F6D5AA" d="M963.138,334.081c3.96-3.86,11.011-6.065,14.681-3.672c3.672,2.395,6.543,5.426,8.618,7.501
		c2.074,2.075,2.872,8.776-2.075,13.724c-4.946,4.947-11.648,7.022-16.276,3.512c-4.629-3.512-7.5-7.022-8.299-7.98
		C958.989,346.208,956.915,340.144,963.138,334.081z"/>
	<path fill="#F6D5AA" d="M956.117,362.006c3.961-3.859,10.532-6.064,14.202-3.67c3.671,2.394,12.768,9.894,14.842,11.969
		c2.074,2.074,3.352,8.297-1.437,13.563c-4.706,5.178-11.809,8.458-16.437,4.947s-13.724-11.969-14.522-12.926
		C951.967,374.932,949.893,368.071,956.117,362.006z"/>
	<path fill="#F6D5AA" d="M945.739,390.115c3.962-3.86,10.533-6.064,14.203-3.671c3.671,2.394,12.768,9.895,14.842,11.97
		c2.074,2.073,3.352,8.298-1.437,13.563c-4.706,5.177-11.81,8.459-16.437,4.947c-4.629-3.511-13.725-11.969-14.522-12.926
		S939.516,396.18,945.739,390.115z"/>
	<path fill="#ECBB93" d="M975.553,353.212c0.956-0.569,3.49-1.982,5.983-4.955c2.493-2.972,3.341-4.175,3.84-5.165
		s-0.185-1.771-1.347-2.762c-1.164-0.991-1.828-1.816-4.155-2.312c-2.327-0.495-6.148,0.991-8.642,3.634
		c-2.492,2.642-2.824,8.257-1.495,9.248s2.991,2.146,3.655,2.478C974.058,353.708,974.723,353.708,975.553,353.212z"/>
	<path fill="#FFEFDC" d="M976.064,353.07c0.917-0.55,3.351-1.915,5.745-4.787c2.394-2.872,3.209-4.034,3.688-4.991
		c0.479-0.958-0.177-1.711-1.294-2.669c-1.116-0.958-1.755-1.755-3.989-2.233c-2.234-0.479-5.904,0.957-8.298,3.51
		c-2.394,2.554-2.714,7.979-1.437,8.938c1.276,0.957,2.872,2.074,3.51,2.394C974.627,353.549,975.266,353.549,976.064,353.07z"/>
	<path fill="#ECBB93" d="M972.407,386.175c1.024-0.677,3.738-2.354,6.408-5.888c2.671-3.531,3.453-4.545,3.987-5.723
		s-0.108-1.788-1.354-2.965c-1.246-1.178-2.354-2.052-4.846-2.64c-2.493-0.589-6.154,0.337-8.824,3.477
		c-2.671,3.141-3.026,9.813-1.603,10.99c1.424,1.179,3.204,2.552,3.917,2.944C970.804,386.764,971.517,386.764,972.407,386.175z"/>
	<path fill="#FFEFDC" d="M972.837,385.729c0.982-0.633,3.586-2.197,6.147-5.494c2.562-3.295,3.312-4.24,3.825-5.339
		c0.512-1.099-0.104-1.667-1.3-2.766s-2.258-1.914-4.648-2.464c-2.391-0.549-5.903,0.314-8.465,3.244s-2.902,9.155-1.537,10.254
		c1.366,1.099,3.074,2.38,3.758,2.747C971.3,386.278,971.984,386.278,972.837,385.729z"/>
	<path fill="#ECBB93" d="M962.651,413.808c0.973-0.641,3.549-2.226,6.085-5.562c2.536-3.338,3.278-4.296,3.786-5.407
		c0.506-1.113-0.103-1.689-1.287-2.802c-1.183-1.112-2.9-2.54-5.267-3.096c-2.366-0.558-5.843,0.317-8.378,3.284
		s-2.873,9.271-1.521,10.383c1.353,1.113,3.709,3.014,4.385,3.385S961.806,414.364,962.651,413.808z"/>
	<path fill="#FFEFDC" d="M963.31,413.509c0.955-0.614,3.485-2.135,5.974-5.337c2.49-3.2,3.219-4.119,3.717-5.186
		s-0.101-1.619-1.262-2.687c-1.162-1.065-2.849-2.436-5.171-2.969c-2.324-0.534-5.736,0.305-8.226,3.15
		c-2.489,2.845-2.82,8.892-1.494,9.959c1.328,1.067,3.641,2.89,4.305,3.245S962.481,414.042,963.31,413.509z"/>
	<path fill="#F6D5AA" d="M1075.723,483.209c0,0-20.586-10.771-22.262-28.725s23.22-45.242,36.863-56.971
		c0,0-12.207-20.347-15.319-31.598c-3.112-11.25-4.069-23.697,7.421-32.794c0,0,40.933,51.226,41.65,52.184
		c0.719,0.957-3.352,15.319-7.181,28.485c-3.83,13.166-7.899,29.682-8.857,32.794c-0.957,3.112-5.984,10.532-5.266,13.645
		c0.718,3.112,4.309,11.969,4.309,11.969L1075.723,483.209z"/>
	<path fill="#ECBB93" d="M1124.077,385.306c-0.718-0.958-41.65-52.184-41.65-52.184c-3.461,2.739-5.787,5.785-7.271,9.009
		l44.853,41.021c0,0-2.029,16.575-1.682,25.698C1121.664,397.26,1124.706,386.144,1124.077,385.306z"/>
	<path fill="#FFEFDC" d="M1082.186,340.303c0.958,2.634,3.591,6.942,5.506,9.097c1.7,1.912,5.848,2.312,8.434,0.87
		c-5.262-6.586-9.828-12.303-12.122-15.174C1082.227,336.627,1081.401,338.143,1082.186,340.303z"/>
	<path fill="#F9E0C0" d="M1085.888,401.516c-13.962,13.143-33.933,36.828-32.427,52.969c0.506,5.418,2.734,10.181,5.599,14.191
		c6.714,7.248,10.919,7.831,10.919,7.831c-12.527-19.868-11.73-26.729-4.867-41.571
		C1070.961,422.284,1081.362,407.583,1085.888,401.516z"/>
	<polygon fill="#FFFFFD" points="1023.54,510.738 1020.189,501.163 1109.236,469.086 1114.262,478.901 	"/>
	<polygon fill="#D13A28" points="1116.657,476.747 1018.752,510.977 1026.173,534.196 1143.227,534.196 	"/>
	<circle fill="#B82D25" cx="1037.663" cy="521.031" r="8.139"/>
</g>
</svg>
