<?xml version="1.0" encoding="utf-8"?>
<!-- Generator: Adobe Illustrator 16.0.0, SVG Export Plug-In . SVG Version: 6.00 Build 0)  -->
<!DOCTYPE svg PUBLIC "-//W3C//DTD SVG 1.1//EN" "http://www.w3.org/Graphics/SVG/1.1/DTD/svg11.dtd">
<svg version="1.1" xmlns="http://www.w3.org/2000/svg" xmlns:xlink="http://www.w3.org/1999/xlink" x="0px" y="0px"
	 width="1261.72px" height="639.391px" viewBox="0 0 1261.72 639.391" enable-background="new 0 0 1261.72 639.391"
	 xml:space="preserve">
<g id="Layer_1">
	
		<image overflow="visible" width="1262" height="639" xlink:href="banner.png"  transform="matrix(0.9999 0 0 0.9999 -0.1221 -0.1064)">
	</image>
</g>
<g id="Layer_2">
	<rect fill="#4DC0C1" width="1261.72" height="639.391"/>
	<g>
		<rect x="19.545" y="190.975" fill="#43BBBA" width="193.333" height="377.834"/>
		<rect x="31.545" y="181.56" fill="#64C2C6" width="169.333" height="22"/>
		<g>
			<g>
				<rect x="53.044" y="231.56" fill="#6DC8CD" width="40.667" height="62.167"/>
				<rect x="47.378" y="291.56" fill="#72CED1" width="52" height="6.5"/>
				<polygon fill="#72CED1" points="100.378,221.894 46.378,221.894 46.378,228.394 50.544,228.394 50.544,233.894 96.211,233.894 
					96.211,228.394 100.378,228.394 				"/>
			</g>
			<g>
				<rect x="135.044" y="231.56" fill="#6DC8CD" width="40.667" height="62.167"/>
				<rect x="129.378" y="291.56" fill="#72CED1" width="52" height="6.5"/>
				<polygon fill="#72CED1" points="182.378,221.894 128.378,221.894 128.378,228.394 132.544,228.394 132.544,233.894 
					178.211,233.894 178.211,228.394 182.378,228.394 				"/>
			</g>
			<g>
				<rect x="53.044" y="336.56" fill="#6DC8CD" width="40.667" height="62.167"/>
				<rect x="47.378" y="396.56" fill="#72CED1" width="52" height="6.5"/>
				<polygon fill="#72CED1" points="100.378,326.894 46.378,326.894 46.378,333.394 50.544,333.394 50.544,338.894 96.211,338.894 
					96.211,333.394 100.378,333.394 				"/>
			</g>
			<g>
				<rect x="135.044" y="336.56" fill="#6DC8CD" width="40.667" height="62.167"/>
				<rect x="129.378" y="396.56" fill="#72CED1" width="52" height="6.5"/>
				<polygon fill="#72CED1" points="182.378,326.894 128.378,326.894 128.378,333.394 132.544,333.394 132.544,338.894 
					178.211,338.894 178.211,333.394 182.378,333.394 				"/>
			</g>
		</g>
	</g>
	<g>
		<rect x="576.545" y="210.975" fill="#43BBBA" width="193.333" height="377.834"/>
		<rect x="588.545" y="201.56" fill="#64C2C6" width="169.333" height="22"/>
		<g>
			<g>
				<rect x="610.044" y="251.56" fill="#6DC8CD" width="40.667" height="62.167"/>
				<rect x="604.378" y="311.56" fill="#72CED1" width="52" height="6.5"/>
				<polygon fill="#72CED1" points="657.378,241.894 603.378,241.894 603.378,248.394 607.544,248.394 607.544,253.894 
					653.212,253.894 653.212,248.394 657.378,248.394 				"/>
			</g>
			<g>
				<rect x="692.044" y="251.56" fill="#6DC8CD" width="40.668" height="62.167"/>
				<rect x="686.378" y="311.56" fill="#72CED1" width="52" height="6.5"/>
				<polygon fill="#72CED1" points="739.378,241.894 685.378,241.894 685.378,248.394 689.544,248.394 689.544,253.894 
					735.212,253.894 735.212,248.394 739.378,248.394 				"/>
			</g>
			<g>
				<rect x="610.044" y="356.56" fill="#6DC8CD" width="40.667" height="62.167"/>
				<rect x="604.378" y="416.56" fill="#72CED1" width="52" height="6.5"/>
				<polygon fill="#72CED1" points="657.378,346.894 603.378,346.894 603.378,353.394 607.544,353.394 607.544,358.894 
					653.212,358.894 653.212,353.394 657.378,353.394 				"/>
			</g>
			<g>
				<rect x="692.044" y="356.56" fill="#6DC8CD" width="40.668" height="62.167"/>
				<rect x="686.378" y="416.56" fill="#72CED1" width="52" height="6.5"/>
				<polygon fill="#72CED1" points="739.378,346.894 685.378,346.894 685.378,353.394 689.544,353.394 689.544,358.894 
					735.212,358.894 735.212,353.394 739.378,353.394 				"/>
			</g>
		</g>
	</g>
	<g>
		<rect x="1094.546" y="194.975" fill="#43BBBA" width="167.174" height="377.834"/>
		<rect x="1106.546" y="185.56" fill="#64C2C6" width="155.174" height="22"/>
		<g>
			<g>
				<rect x="1128.044" y="235.56" fill="#6DC8CD" width="40.668" height="62.167"/>
				<rect x="1122.378" y="295.56" fill="#72CED1" width="52" height="6.5"/>
				<polygon fill="#72CED1" points="1175.378,225.894 1121.378,225.894 1121.378,232.394 1125.544,232.394 1125.544,237.894 
					1171.212,237.894 1171.212,232.394 1175.378,232.394 				"/>
			</g>
			<g>
				<rect x="1210.044" y="235.56" fill="#6DC8CD" width="40.668" height="62.167"/>
				<rect x="1204.378" y="295.56" fill="#72CED1" width="52" height="6.5"/>
				<polygon fill="#72CED1" points="1257.378,225.894 1203.378,225.894 1203.378,232.394 1207.544,232.394 1207.544,237.894 
					1253.212,237.894 1253.212,232.394 1257.378,232.394 				"/>
			</g>
			<g>
				<rect x="1128.044" y="340.56" fill="#6DC8CD" width="40.668" height="62.167"/>
				<rect x="1122.378" y="400.56" fill="#72CED1" width="52" height="6.5"/>
				<polygon fill="#72CED1" points="1175.378,330.894 1121.378,330.894 1121.378,337.394 1125.544,337.394 1125.544,342.894 
					1171.212,342.894 1171.212,337.394 1175.378,337.394 				"/>
			</g>
			<g>
				<rect x="1210.044" y="340.56" fill="#6DC8CD" width="40.668" height="62.167"/>
				<rect x="1204.378" y="400.56" fill="#72CED1" width="52" height="6.5"/>
				<polygon fill="#72CED1" points="1257.378,330.894 1203.378,330.894 1203.378,337.394 1207.544,337.394 1207.544,342.894 
					1253.212,342.894 1253.212,337.394 1257.378,337.394 				"/>
			</g>
		</g>
	</g>
	<g>
		<rect x="244.545" y="278.975" fill="#43BBBA" width="289.333" height="323.834"/>
		<rect x="256.545" y="269.56" fill="#64C2C6" width="263.333" height="22"/>
		<g>
			<g>
				<rect x="278.044" y="319.56" fill="#6DC8CD" width="40.667" height="62.167"/>
				<rect x="272.378" y="379.56" fill="#72CED1" width="52" height="6.5"/>
				<polygon fill="#72CED1" points="325.378,309.894 271.378,309.894 271.378,316.394 275.544,316.394 275.544,321.894 
					321.211,321.894 321.211,316.394 325.378,316.394 				"/>
			</g>
			<g>
				<rect x="363.044" y="319.56" fill="#6DC8CD" width="40.667" height="62.167"/>
				<rect x="357.378" y="379.56" fill="#72CED1" width="52" height="6.5"/>
				<polygon fill="#72CED1" points="410.378,309.894 356.378,309.894 356.378,316.394 360.544,316.394 360.544,321.894 
					406.211,321.894 406.211,316.394 410.378,316.394 				"/>
			</g>
			<g>
				<rect x="278.044" y="424.56" fill="#6DC8CD" width="40.667" height="62.167"/>
				<rect x="272.378" y="484.56" fill="#72CED1" width="52" height="6.5"/>
				<polygon fill="#72CED1" points="325.378,414.894 271.378,414.894 271.378,421.394 275.544,421.394 275.544,426.894 
					321.211,426.894 321.211,421.394 325.378,421.394 				"/>
			</g>
			<g>
				<rect x="363.044" y="424.56" fill="#6DC8CD" width="40.667" height="62.167"/>
				<rect x="357.378" y="484.56" fill="#72CED1" width="52" height="6.5"/>
				<polygon fill="#72CED1" points="410.378,414.894 356.378,414.894 356.378,421.394 360.544,421.394 360.544,426.894 
					406.211,426.894 406.211,421.394 410.378,421.394 				"/>
			</g>
			<g>
				<rect x="449.044" y="319.56" fill="#6DC8CD" width="40.667" height="62.167"/>
				<rect x="443.378" y="379.56" fill="#72CED1" width="52" height="6.5"/>
				<polygon fill="#72CED1" points="496.378,309.894 442.378,309.894 442.378,316.394 446.544,316.394 446.544,321.894 
					492.211,321.894 492.211,316.394 496.378,316.394 				"/>
			</g>
			<g>
				<rect x="449.044" y="424.56" fill="#6DC8CD" width="40.667" height="62.167"/>
				<rect x="443.378" y="484.56" fill="#72CED1" width="52" height="6.5"/>
				<polygon fill="#72CED1" points="496.378,414.894 442.378,414.894 442.378,421.394 446.544,421.394 446.544,426.894 
					492.211,426.894 492.211,421.394 496.378,421.394 				"/>
			</g>
		</g>
	</g>
	<path fill="#5F908B" d="M615.378,540.229c-0.464,0-0.856,0.275-1.045,0.668h-1.122v-5.834c0-0.338-0.012-0.672-0.034-1.001h1.201
		v-3h-1.709c-0.978-3.53-3.109-5.999-4.951-5.999h-0.702c0.014-0.055,0.029-0.109,0.029-0.167c0-0.645-0.896-1.167-2-1.167
		s-2,0.522-2,1.167c0,0.062,0.016,0.122,0.031,0.181c-1.812,0.109-3.867,2.536-4.822,5.985h-2.376v3h1.667v6.835h-1.455
		c-0.188-0.393-0.581-0.668-1.045-0.668c-0.645,0-1.167,0.522-1.167,1.167v3.333c0,0.645,0.522,1.167,1.167,1.167
		c0.391,0,0.72-0.205,0.932-0.5h1.568v12.333h-2.167v3h19.5v-3h-1.833v-12.333h1.401c0.212,0.295,0.541,0.5,0.932,0.5
		c0.645,0,1.167-0.522,1.167-1.167v-3.333C616.545,540.751,616.022,540.229,615.378,540.229z"/>
	<path fill="#6ED184" d="M55.128,531.144c-8.514,0.145-21.75-2.75-23.5-12.75s-0.25-23.75,5.25-35.75s15-15,27.5-9.5
		s19.75,19.25,16.25,35.25S69.878,530.894,55.128,531.144z"/>
	<path fill="#3E9DA5" d="M59.128,562.394c0,0,0-24.75,0-29s9.5-18.25,10.75-19.5s2.5-4,0-5.25s-3.25-1.25-5.25,1.75s-5,6.5-5,6.5
		s0.5-18.5,0.75-30.25c-4.25,7-8.25,20-8.75,37.25c0,0-1.75-0.75-4.5-1.75s-3.5-0.75-4,1.25s0.25,3,3,4s5,1.25,5.5,5
		s-0.25,29.75-0.25,29.75L59.128,562.394z"/>
	<rect y="561.222" fill="#71586D" width="1261.72" height="15.494"/>
	<rect y="570.472" fill="#898995" width="1261.72" height="68.919"/>
	<g>
		<g>
			<polygon fill="#FEFEFE" points="512.128,367.894 577.628,381.644 572.878,396.394 509.628,381.644 			"/>
			<polygon fill="#F4CDA5" points="510.128,377.394 512.128,367.894 514.378,374.644 			"/>
			<polygon fill="#F4CDA5" points="572.878,386.644 577.628,381.644 574.878,392.894 			"/>
			<polygon fill="#ECA83A" points="577.128,392.894 572.878,386.644 571.378,392.394 			"/>
			<polygon fill="#ECA83A" points="507.628,377.144 514.378,374.644 513.378,380.144 			"/>
			<polygon fill="#F4CDA5" points="490.628,446.144 507.628,377.144 577.128,392.894 563.128,463.144 			"/>
			<g>
				<path fill="#E8BC91" d="M537.766,415.751c-0.327,0-0.658-0.009-0.996-0.027c-4.29-0.231-7.753-1.787-10.294-4.623
					c-4.529-5.054-4.823-12.706-4.595-16.817l3.994,0.221c-0.156,2.812-0.12,9.8,3.579,13.928c1.833,2.044,4.296,3.123,7.532,3.298
					c10.597,0.567,13.935-10.765,13.967-10.879l3.85,1.086C553.428,406.812,548.127,415.751,537.766,415.751z"/>
			</g>
			<circle fill="#290C1A" cx="524.503" cy="393.019" r="3.625"/>
			<circle fill="#290C1A" cx="553.753" cy="399.394" r="3.625"/>
			<g>
				<path fill="#FFFFFF" d="M538.433,413.917c-0.327,0-0.658-0.009-0.996-0.027c-4.29-0.231-7.753-1.787-10.294-4.623
					c-4.529-5.054-4.823-12.706-4.595-16.817c0.061-1.104,1.01-1.944,2.108-1.887c1.103,0.062,1.947,1.005,1.886,2.107
					c-0.156,2.812-0.12,9.8,3.579,13.928c1.833,2.044,4.296,3.123,7.532,3.298c10.604,0.557,13.935-10.765,13.967-10.879
					c0.3-1.063,1.406-1.685,2.468-1.382c1.063,0.3,1.682,1.404,1.382,2.468C554.095,404.978,548.794,413.917,538.433,413.917z"/>
			</g>
			<path fill="#F89E03" d="M543.545,408.56c0,0-1.667-1.666-2.667-1.666s-6.333,6.334-6.333,8s0.333,11.666,0.333,13.333
				s1,2.667,2.667,2.667s5.667-0.334,7-0.334s2.333-1.666,2.333-4.333s-0.667-13.667-0.667-13.667s-3.417,0.5-5.417,0.167
				c-0.667-1.666,0.75-3.5,0.75-3.5L543.545,408.56z"/>
		</g>
		<g>
			<polygon fill="#FCA004" points="468.878,508.644 537.628,526.894 554.628,460.894 485.378,444.394 			"/>
			<polygon fill="#FEFCF6" points="509.128,465.144 522.128,468.894 525.128,456.144 512.128,453.144 			"/>
		</g>
		<g>
			<g>
				<path fill="#315871" d="M554.763,538.647l-68.288-16.716l2.14-8.742l59.711,14.616c4.125-15.576,18.213-68.825,20.178-76.968
					c3.197-13.251,9.916-14.382,21.2-11.833l-1.983,8.779c-1.562-0.354-6.316-1.427-7.885-0.63
					c-0.896,0.456-1.765,2.405-2.583,5.795c-2.319,9.605-20.582,78.502-21.358,81.431L554.763,538.647z"/>
			</g>
			<polygon fill="#315871" points="592.711,439.228 590.378,450.061 616.378,456.395 618.711,445.395 			"/>
			<circle fill="#2E5B73" cx="552.878" cy="543.644" r="19.25"/>
			<circle fill="#F5CFA5" cx="552.878" cy="543.644" r="10.25"/>
		</g>
	</g>
	<path fill="#62CC8E" d="M641.878,524.394c-6.946-1.001-16.25-3.75-18.75-14.5s0.75-28.75,10.75-32.25s18-1.75,24,3
		s10.25,12.75,10.25,24S669.628,528.394,641.878,524.394z"/>
	<path fill="#3BA4AC" d="M648.628,538.644c0,0-0.75-10.25,1-13.75s2-5.25,2-5.25l-2.75,1.25c0,0-0.5-9.75-1.75-15s-2.5-10.75-2-21.5
		c0,0-4.25,3-4,11s-1,19.25-1,19.25s-2-3-7-7.75c0,0,2.75,7,4.5,10.25s3.5,12,2.75,20
		C645.628,539.894,648.628,538.644,648.628,538.644z"/>
	<g>
		<path fill="#2D5A72" d="M1201.545,531.226c0,9.941-8.059,18-18,18h-488c-9.941,0-18-8.059-18-18V198.559c0-9.941,8.059-18,18-18
			h488c9.941,0,18,8.059,18,18V531.226z"/>
		<path fill="#1B4456" d="M1201.545,306.53v-28.136h-49.918h-0.085h-59.665h-0.085h-59.665h-0.084h-59.666h-0.084h-59.666h-0.084
			h-59.665h-0.085h-59.665h-0.085h-59.665h-0.085h-55.748v21.841c4.485,6.911,12.305,11.492,21.209,11.492h9.413
			c13.445,0,24.43-10.438,25.168-23.587c0.74,13.149,11.724,23.587,25.169,23.587h9.413c13.445,0,24.43-10.438,25.168-23.587
			c0.74,13.149,11.724,23.587,25.169,23.587h9.413c13.445,0,24.43-10.438,25.168-23.587c0.739,13.149,11.723,23.587,25.169,23.587
			h9.412c13.448,0,24.433-10.441,25.169-23.593c0.736,13.152,11.721,23.593,25.169,23.593h9.412
			c13.448,0,24.433-10.441,25.169-23.593c0.736,13.152,11.721,23.593,25.169,23.593h9.412c13.448,0,24.433-10.441,25.169-23.593
			c0.736,13.152,11.721,23.593,25.169,23.593h9.412c13.446,0,24.43-10.438,25.169-23.587c0.738,13.149,11.723,23.587,25.168,23.587
			h9.413c13.445,0,24.429-10.438,25.169-23.587c0.738,13.149,11.723,23.587,25.168,23.587h9.413
			C1191.957,311.726,1197.288,309.785,1201.545,306.53z"/>
		<g>
			<rect x="698.212" y="269.228" fill="#FFFFFF" width="483.333" height="242"/>
			<path fill="#EAF7F7" d="M1181.545,278.394h-29.918h-0.085h-59.665h-0.085h-59.665h-0.084h-59.666h-0.084h-59.666h-0.084h-59.665
				h-0.085h-59.665h-0.085h-59.665h-0.085h-35.081v33.319c0.181,0.004,0.36,0.014,0.542,0.014h9.413
				c13.445,0,24.43-10.438,25.168-23.587c0.74,13.149,11.724,23.587,25.169,23.587h9.413c13.445,0,24.43-10.438,25.168-23.587
				c0.74,13.149,11.724,23.587,25.169,23.587h9.413c13.445,0,24.43-10.438,25.168-23.587c0.739,13.149,11.723,23.587,25.169,23.587
				h9.412c13.448,0,24.433-10.441,25.169-23.593c0.736,13.152,11.721,23.593,25.169,23.593h9.412
				c13.448,0,24.433-10.441,25.169-23.593c0.736,13.152,11.721,23.593,25.169,23.593h9.412c13.448,0,24.433-10.441,25.169-23.593
				c0.736,13.152,11.721,23.593,25.169,23.593h9.412c13.446,0,24.43-10.438,25.169-23.587c0.738,13.149,11.723,23.587,25.168,23.587
				h9.413c13.445,0,24.429-10.438,25.169-23.587c0.738,13.149,11.723,23.587,25.168,23.587h4.792V278.394z"/>
			<g>
				<rect x="713.378" y="263.894" fill="#BAE6E7" width="301" height="228.5"/>
				<rect x="1045.17" y="263.894" fill="#BAE6E7" width="114.208" height="228.5"/>
				<circle fill="#419EA7" cx="1104.878" cy="344.394" r="3.5"/>
				<g>
					<polygon fill="#419EA7" points="1092.321,357.864 1090.935,356.423 1104.862,343.021 1118.055,355.157 1116.701,356.63 
						1104.894,345.767 					"/>
				</g>
				<g>
					<path fill="#ED0E00" d="M927.399,390.894c0,6.075-4.925,11-11,11h-105.5c-6.075,0-11-4.925-11-11v-20.5c0-6.075,4.925-11,11-11
						h105.5c6.075,0,11,4.925,11,11V390.894z"/>
					<g>
						<path fill="#FFFFFF" d="M825.772,389.468c-0.751,0.375-2.252,0.75-4.175,0.75c-4.456,0-7.81-2.814-7.81-7.997
							c0-4.948,3.354-8.303,8.255-8.303c1.97,0,3.213,0.423,3.753,0.704l-0.493,1.665c-0.773-0.375-1.876-0.657-3.189-0.657
							c-3.705,0-6.168,2.369-6.168,6.521c0,3.869,2.228,6.355,6.074,6.355c1.243,0,2.51-0.258,3.33-0.656L825.772,389.468z"/>
						<path fill="#FFFFFF" d="M841.347,381.916c0,5.44-3.307,8.325-7.341,8.325c-4.174,0-7.105-3.236-7.105-8.021
							c0-5.02,3.119-8.303,7.34-8.303C838.556,373.918,841.347,377.226,841.347,381.916z M829.081,382.174
							c0,3.377,1.829,6.402,5.042,6.402c3.237,0,5.066-2.979,5.066-6.566c0-3.143-1.642-6.427-5.043-6.427
							C830.77,375.583,829.081,378.702,829.081,382.174z"/>
						<path fill="#FFFFFF" d="M857.32,383.041c-0.117-2.204-0.258-4.854-0.234-6.824h-0.07c-0.539,1.853-1.196,3.822-1.993,6.004
							l-2.791,7.669h-1.548l-2.557-7.528c-0.751-2.229-1.384-4.269-1.829-6.145h-0.047c-0.047,1.97-0.164,4.62-0.306,6.988
							l-0.422,6.778h-1.946l1.103-15.808h2.603l2.697,7.646c0.657,1.946,1.196,3.682,1.595,5.323h0.07
							c0.399-1.595,0.962-3.33,1.665-5.323l2.814-7.646h2.604l0.985,15.808h-1.994L857.32,383.041z"/>
						<path fill="#FFFFFF" d="M862.858,374.364c0.985-0.165,2.275-0.306,3.917-0.306c2.017,0,3.494,0.47,4.433,1.313
							c0.867,0.751,1.384,1.9,1.384,3.307c0,1.431-0.423,2.557-1.22,3.378c-1.079,1.148-2.838,1.735-4.831,1.735
							c-0.61,0-1.173-0.023-1.642-0.141v6.332h-2.041V374.364z M864.899,381.986c0.445,0.117,1.008,0.164,1.688,0.164
							c2.462,0,3.963-1.196,3.963-3.377c0-2.088-1.478-3.097-3.729-3.097c-0.892,0-1.571,0.071-1.923,0.165V381.986z"/>
						<path fill="#FFFFFF" d="M875.337,374.388c1.032-0.212,2.51-0.329,3.917-0.329c2.181,0,3.588,0.399,4.573,1.29
							c0.797,0.704,1.243,1.782,1.243,3.002c0,2.088-1.313,3.472-2.979,4.034v0.07c1.219,0.422,1.946,1.548,2.321,3.189
							c0.517,2.205,0.892,3.729,1.22,4.339h-2.11c-0.259-0.445-0.61-1.806-1.056-3.776c-0.469-2.181-1.313-3.002-3.166-3.072h-1.923
							v6.849h-2.041V374.388z M877.378,381.587h2.087c2.181,0,3.564-1.195,3.564-3.002c0-2.04-1.478-2.932-3.635-2.955
							c-0.985,0-1.688,0.094-2.017,0.188V381.587z"/>
						<path fill="#FFFFFF" d="M890.631,385.012l-1.642,4.972h-2.111l5.371-15.808h2.463l5.394,15.808h-2.181l-1.688-4.972H890.631z
							 M895.813,383.417l-1.548-4.55c-0.352-1.032-0.586-1.971-0.82-2.885h-0.047c-0.234,0.938-0.493,1.899-0.798,2.861
							l-1.548,4.573H895.813z"/>
						<path fill="#FFFFFF" d="M902.43,374.388c1.032-0.212,2.51-0.329,3.917-0.329c2.181,0,3.588,0.399,4.573,1.29
							c0.797,0.704,1.243,1.782,1.243,3.002c0,2.088-1.313,3.472-2.979,4.034v0.07c1.22,0.422,1.946,1.548,2.321,3.189
							c0.517,2.205,0.892,3.729,1.22,4.339h-2.11c-0.259-0.445-0.61-1.806-1.056-3.776c-0.469-2.181-1.313-3.002-3.166-3.072h-1.923
							v6.849h-2.041V374.388z M904.471,381.587h2.087c2.181,0,3.564-1.195,3.564-3.002c0-2.04-1.478-2.932-3.635-2.955
							c-0.985,0-1.688,0.094-2.017,0.188V381.587z"/>
					</g>
				</g>
				<polygon fill="#38404C" points="922.378,405.894 930.878,445.894 941.378,427.894 958.378,421.394 				"/>
				<g>
					<path fill="#F98701" d="M819.128,449.644h-83.5c-2.2,0-3.418,1.703-2.707,3.785l11.414,33.43
						c0.711,2.082,3.093,3.785,5.293,3.785h53.5c2.2,0,4.654-1.677,5.454-3.727l13.092-33.547
						C822.474,451.32,821.328,449.644,819.128,449.644z M758.711,482.894c0,0.553-0.447,1-1,1h-5.166c-0.553,0-1-0.447-1-1v-23.5
						c0-0.553,0.447-1,1-1h5.166c0.553,0,1,0.447,1,1V482.894z M773.294,482.894c0,0.553-0.447,1-1,1h-5.166c-0.553,0-1-0.447-1-1
						v-23.5c0-0.553,0.447-1,1-1h5.166c0.553,0,1,0.447,1,1V482.894z M787.877,482.894c0,0.553-0.447,1-1,1h-5.166
						c-0.553,0-1-0.447-1-1v-23.5c0-0.553,0.447-1,1-1h5.166c0.553,0,1,0.447,1,1V482.894z M802.46,482.894c0,0.553-0.447,1-1,1
						h-5.166c-0.553,0-1-0.447-1-1v-23.5c0-0.553,0.447-1,1-1h5.166c0.553,0,1,0.447,1,1V482.894z"/>
					<path fill="#DA7300" d="M819.128,449.644h-83.5c-2.2,0-3.418,1.703-2.707,3.785l1.468,4.3h85.584l1.701-4.358
						C822.474,451.32,821.328,449.644,819.128,449.644z"/>
					<path fill="#F98701" d="M828.212,454.562c0,0.553-0.447,1-1,1h-98.999c-0.553,0-1-0.447-1-1v-10.5c0-0.553,0.447-1,1-1h98.999
						c0.553,0,1,0.447,1,1V454.562z"/>
					<path fill="#FFF9F8" d="M806.269,446.558c0.238,0.499,0.026,1.096-0.473,1.333l-4.966,2.364
						c-0.499,0.237-1.096,0.026-1.333-0.473l-17.467-35.556c-0.238-0.499-0.026-1.096,0.473-1.333l4.966-2.364
						c0.499-0.237,1.096-0.026,1.333,0.473L806.269,446.558z"/>
					<circle fill="#44263C" cx="800.503" cy="443.769" r="2.625"/>
					<path fill="#FFF9F8" d="M747.03,446.558c-0.238,0.499-0.026,1.096,0.473,1.333l4.966,2.364
						c0.499,0.237,1.096,0.026,1.333-0.473l17.467-35.556c0.238-0.499,0.026-1.096-0.473-1.333l-4.966-2.364
						c-0.499-0.237-1.096-0.026-1.333,0.473L747.03,446.558z"/>
					<circle fill="#44263C" cx="752.796" cy="443.769" r="2.625"/>
				</g>
				
					<line fill="none" stroke="#FFFFFF" stroke-width="3" stroke-linecap="round" stroke-miterlimit="10" x1="870.211" y1="334.561" x2="870.211" y2="351.561"/>
				
					<line fill="none" stroke="#FFFFFF" stroke-width="3" stroke-linecap="round" stroke-miterlimit="10" x1="870.211" y1="411.561" x2="870.211" y2="428.561"/>
				
					<line fill="none" stroke="#FFFFFF" stroke-width="3" stroke-linecap="round" stroke-miterlimit="10" x1="894.93" y1="339.586" x2="885.989" y2="354.045"/>
				
					<line fill="none" stroke="#FFFFFF" stroke-width="3" stroke-linecap="round" stroke-miterlimit="10" x1="854.433" y1="409.076" x2="845.492" y2="423.535"/>
				
					<line fill="none" stroke="#FFFFFF" stroke-width="3" stroke-linecap="round" stroke-miterlimit="10" x1="844.997" y1="339.896" x2="854.117" y2="354.242"/>
				
					<line fill="none" stroke="#FFFFFF" stroke-width="3" stroke-linecap="round" stroke-miterlimit="10" x1="886.306" y1="408.878" x2="895.426" y2="423.224"/>
				<polygon fill="#DFF2F7" points="1011.878,489.894 917.878,489.894 1011.878,403.394 				"/>
				<polygon fill="#DFF2F7" points="1156.878,489.894 1062.878,489.894 1156.878,403.394 				"/>
				<rect x="1073.628" y="354.144" fill="#F9FCFC" width="61.25" height="31.25"/>
				<g>
					<path fill="#3A3A3A" d="M1081.733,371.521l-0.985,2.985h-1.268l3.225-9.492h1.479l3.239,9.492h-1.31l-1.014-2.985H1081.733z
						 M1084.846,370.563l-0.93-2.732c-0.211-0.62-0.352-1.183-0.492-1.732h-0.028c-0.141,0.563-0.296,1.141-0.479,1.719
						l-0.929,2.746H1084.846z"/>
					<path fill="#3A3A3A" d="M1088.82,365.141c0.535-0.112,1.38-0.196,2.239-0.196c1.226,0,2.014,0.211,2.605,0.689
						c0.493,0.366,0.789,0.93,0.789,1.676c0,0.916-0.605,1.719-1.605,2.085v0.028c0.901,0.225,1.957,0.972,1.957,2.38
						c0,0.816-0.323,1.437-0.803,1.901c-0.662,0.605-1.732,0.888-3.281,0.888c-0.845,0-1.493-0.057-1.901-0.113V365.141z
						 M1090.046,369.028h1.112c1.296,0,2.057-0.676,2.057-1.592c0-1.112-0.846-1.549-2.085-1.549c-0.563,0-0.887,0.042-1.084,0.084
						V369.028z M1090.046,373.577c0.239,0.042,0.591,0.057,1.028,0.057c1.268,0,2.437-0.465,2.437-1.845
						c0-1.296-1.113-1.831-2.451-1.831h-1.014V373.577z"/>
					<path fill="#3A3A3A" d="M1097.682,365.015v9.492h-1.226v-9.492H1097.682z"/>
					<path fill="#3A3A3A" d="M1104.738,370.057h-3.689v3.422h4.112v1.028h-5.338v-9.492h5.127v1.027h-3.901v3h3.689V370.057z"/>
					<path fill="#3A3A3A" d="M1106.755,365.141c0.62-0.126,1.507-0.196,2.353-0.196c1.31,0,2.154,0.239,2.746,0.774
						c0.479,0.422,0.746,1.07,0.746,1.803c0,1.253-0.788,2.084-1.788,2.422v0.043c0.732,0.253,1.169,0.929,1.394,1.915
						c0.311,1.324,0.535,2.239,0.732,2.605h-1.268c-0.154-0.268-0.366-1.084-0.634-2.268c-0.281-1.31-0.788-1.803-1.901-1.845
						h-1.154v4.112h-1.226V365.141z M1107.98,369.465h1.253c1.311,0,2.141-0.719,2.141-1.803c0-1.226-0.887-1.761-2.183-1.774
						c-0.592,0-1.014,0.057-1.211,0.112V369.465z"/>
					<path fill="#3A3A3A" d="M1116.264,366.057h-2.887v-1.042h7.027v1.042h-2.901v8.45h-1.239V366.057z"/>
					<path fill="#3A3A3A" d="M1129.195,369.662c0,3.268-1.985,5-4.408,5c-2.507,0-4.268-1.944-4.268-4.817
						c0-3.014,1.873-4.985,4.408-4.985C1127.52,364.859,1129.195,366.845,1129.195,369.662z M1121.829,369.817
						c0,2.027,1.099,3.845,3.028,3.845c1.943,0,3.042-1.789,3.042-3.943c0-1.888-0.985-3.859-3.027-3.859
						C1122.844,365.859,1121.829,367.732,1121.829,369.817z"/>
				</g>
				<circle fill="#2D5A72" cx="1143.711" cy="400.728" r="5.167"/>
				<path fill="#AEE1E3" d="M1014.378,278.394h-42.001h-0.084h-59.666h-0.084h-59.665h-0.085h-59.665h-0.085h-59.665h-0.085h-19.915
					v32.792c10.972-2.287,19.316-11.645,19.957-23.046c0.74,13.149,11.724,23.587,25.169,23.587h9.413
					c13.445,0,24.43-10.438,25.168-23.587c0.74,13.149,11.724,23.587,25.169,23.587h9.413c13.445,0,24.43-10.438,25.168-23.587
					c0.739,13.149,11.723,23.587,25.169,23.587h9.412c13.448,0,24.433-10.441,25.169-23.593
					c0.736,13.152,11.721,23.593,25.169,23.593h9.412c13.448,0,24.433-10.441,25.169-23.593
					c0.736,13.152,11.721,23.593,25.169,23.593h9.412c2.599,0,5.104-0.394,7.462-1.118V278.394z"/>
				<path fill="#AEE1E3" d="M1159.378,278.394h-7.751h-0.085h-59.665h-0.085h-46.622v30.271c3.589,1.948,7.704,3.062,12.084,3.062
					h9.412c13.446,0,24.43-10.438,25.169-23.587c0.738,13.149,11.723,23.587,25.168,23.587h9.413
					c13.445,0,24.429-10.438,25.169-23.587c0.368,6.562,3.289,12.448,7.793,16.699V278.394z"/>
			</g>
		</g>
		<g>
			<rect x="624.211" y="535.561" fill="#ADBBC4" width="615.333" height="14.333"/>
			<path fill="#2D5A72" d="M1238.878,548.228c0,7.18-4.258,13-9.509,13H633.721c-5.252,0-9.509-5.82-9.509-13v-5.667h614.667
				V548.228z"/>
			<rect x="624.211" y="539.228" fill="#FFFFFF" width="615.333" height="14"/>
			<path fill="#2D5A72" d="M968.545,546.728c0,1.381-1.119,2.5-2.5,2.5h-67.667c-1.381,0-2.5-1.119-2.5-2.5l0,0
				c0-1.381,1.119-2.5,2.5-2.5h67.667C967.426,544.228,968.545,545.347,968.545,546.728L968.545,546.728z"/>
		</g>
		<g>
			<path fill="#F65C5D" d="M793.043,267.394v8.333c0,13.807,11.287,25,25.211,25h9.413c13.924,0,25.211-11.193,25.211-25v-8.333
				H793.043z"/>
			<path fill="#FFFFFF" d="M852.793,267.394v8.333c0,13.807,11.286,25,25.211,25h9.412c13.925,0,25.211-11.193,25.211-25v-8.333
				H852.793z"/>
			<path fill="#F65C5D" d="M912.543,267.394v8.333c0,13.807,11.286,25,25.211,25h9.412c13.925,0,25.211-11.193,25.211-25v-8.333
				H912.543z"/>
			<path fill="#FFFFFF" d="M972.293,267.394v8.333c0,13.807,11.286,25,25.211,25h9.412c13.925,0,25.211-11.193,25.211-25v-8.333
				H972.293z"/>
			<path fill="#F65C5D" d="M1032.043,267.394v8.333c0,13.807,11.286,25,25.211,25h9.412c13.925,0,25.211-11.193,25.211-25v-8.333
				H1032.043z"/>
			<path fill="#FFFFFF" d="M1091.792,267.394v8.333c0,13.807,11.287,25,25.211,25h9.413c13.924,0,25.211-11.193,25.211-25v-8.333
				H1091.792z"/>
			<path fill="#F65C5D" d="M1151.542,267.394v8.333c0,13.807,11.287,25,25.211,25h9.413c13.924,0,25.211-11.193,25.211-25v-8.333
				H1151.542z"/>
			<path fill="#FFFFFF" d="M733.293,267.394v8.333c0,13.807,11.287,25,25.211,25h9.413c13.924,0,25.211-11.193,25.211-25v-8.333
				H733.293z"/>
			<path fill="#F65C5D" d="M673.543,267.394v8.333c0,13.807,11.287,25,25.211,25h9.413c13.924,0,25.211-11.193,25.211-25v-8.333
				H673.543z"/>
			<rect x="1091.792" y="200.394" fill="#FA8182" width="59.835" height="67.5"/>
			<polygon fill="#DF3F01" points="673.543,267.894 733.378,267.894 733.378,200.394 699.878,200.394 			"/>
			<rect x="733.293" y="200.394" fill="#FA8182" width="59.835" height="67.5"/>
			<rect x="793.043" y="200.394" fill="#DF3F01" width="59.835" height="67.5"/>
			<rect x="852.793" y="200.394" fill="#FA8182" width="59.834" height="67.5"/>
			<rect x="912.543" y="200.394" fill="#DF3F01" width="59.834" height="67.5"/>
			<rect x="972.293" y="200.394" fill="#FA8182" width="59.834" height="67.5"/>
			<rect x="1032.043" y="200.394" fill="#DF3F01" width="59.834" height="67.5"/>
			<polygon fill="#DF3F01" points="1151.542,267.894 1211.377,267.894 1189.378,200.394 1151.542,200.394 			"/>
		</g>
	</g>
</g>
</svg>
