<?xml version="1.0" encoding="utf-8"?>
<!-- Generator: Adobe Illustrator 16.0.0, SVG Export Plug-In . SVG Version: 6.00 Build 0)  -->
<!DOCTYPE svg PUBLIC "-//W3C//DTD SVG 1.1//EN" "http://www.w3.org/Graphics/SVG/1.1/DTD/svg11.dtd">
<svg version="1.1" id="Layer_2" xmlns="http://www.w3.org/2000/svg" xmlns:xlink="http://www.w3.org/1999/xlink" x="0px" y="0px"
	 width="449.943px" height="419.947px" viewBox="0 0 449.943 419.947" enable-background="new 0 0 449.943 419.947"
	 xml:space="preserve">
<g>
	<g>
		<path fill="#52B8BE" d="M74.93,201.464c0,0-28.87,0-32.444,0s-6.186,0.963-6.461,5.087s-3.299,35.88-3.437,38.905
			s-1.65,7.562,8.111,7.562s28.732,0,28.732,0l10.998-6.324L74.93,201.464z"/>
		<path fill="#606C79" d="M160.25,247c0,3.313-2.687,6-6,6H80c-3.313,0-6-2.687-6-6v-73c0-3.313,2.687-6,6-6h74.25
			c3.313,0,6,2.687,6,6V247z"/>
		<path fill="#4B5966" d="M143.5,242.5c0,3.313-2.687,6-6,6H84c-3.313,0-6-2.687-6-6v-26h65.5V242.5z"/>
		<path fill="#43535E" d="M160.25,247c0,3.313-0.958,6-2.139,6h-26.472c-1.181,0-2.139-2.687-2.139-6v-73c0-3.313-8.181-6-7-6
			h35.611c1.181,0,2.139,2.687,2.139,6V247z"/>
		<g>
			<circle fill="#394A60" cx="129.75" cy="259.625" r="16.125"/>
			<circle fill="#FFFFFF" cx="129.75" cy="259.625" r="8.375"/>
			<circle fill="#56606B" cx="129.75" cy="259.625" r="4.625"/>
		</g>
		<g>
			<circle fill="#394A60" cx="71.625" cy="259.625" r="16.125"/>
			<circle fill="#FFFFFF" cx="71.625" cy="259.625" r="8.375"/>
			<circle fill="#56606B" cx="71.625" cy="259.625" r="4.625"/>
		</g>
		<path fill="#304059" d="M68.606,205.863v28.87c0,0-23.509,0-27.083,0s-3.436-3.299-2.749-8.386s2.062-14.021,2.474-16.909
			s3.3-3.575,6.187-3.575S68.606,205.863,68.606,205.863z"/>
		<path fill="#FDFDFA" d="M65.582,209.713v21.858c0,0-18.422,0-21.446,0s-2.75-1.649-2.475-4.674s1.649-12.648,2.062-14.848
			s1.512-2.475,3.987-2.475S65.582,209.713,65.582,209.713z"/>
		<rect x="61.457" y="238.171" fill="#304059" width="7.011" height="1.649"/>
		<circle fill="#F2FEF6" cx="39.599" cy="243.943" r="4.125"/>
	</g>
	<path fill="#E9E9E9" d="M364.25,389.75c0,6.627-5.373,12-12,12h-1c-6.627,0-12-5.373-12-12v-12.5c0-6.627,5.373-12,12-12h1
		c6.627,0,12,5.373,12,12V389.75z"/>
	<path fill="#E9E9E9" d="M367.895,313.967H269.25v0.034h-69.583c-5.514,0-10-4.486-10-10v-3.666c0-5.514,4.486-10,10-10h47.083v-4
		h-47.083c-7.72,0-14,6.28-14,14v3.666c0,7.72,6.28,14,14,14H361v-0.034h6.895c2.942,0,5.337,2.395,5.337,5.337v2.242
		c0,2.942-2.395,5.337-5.337,5.337H339.5v-0.011h-73.642c-5.56,0-10.083,4.522-10.083,10.081v2.47
		c0,5.56,4.523,10.082,10.083,10.082H341c4.088,0,8.5,2.388,8.5,6.245v9h4v-9c0-6.413-6.355-10.245-12.5-10.245h-75.142
		c-3.354,0-6.083-2.729-6.083-6.082v-2.47c0-3.354,2.729-6.081,6.083-6.081h3.392v0.011h98.645c5.148,0,9.337-4.188,9.337-9.337
		v-2.242C377.231,318.155,373.043,313.967,367.895,313.967z"/>
	<path fill="#EE6258" d="M353.5,377.25c0,1.242-1.008,2.25-2.25,2.25l0,0c-1.242,0-2.25-1.008-2.25-2.25v-5.5
		c0-1.242,1.008-2.25,2.25-2.25l0,0c1.242,0,2.25,1.008,2.25,2.25V377.25z"/>
	<g>
		<polygon fill="#57B7BB" points="272.992,271.812 230.573,271.812 223.121,297.035 282.164,297.035 		"/>
		<path fill="#F2F2F2" d="M370,270.5c0,2.209-1.791,4-4,4H137c-2.209,0-4-1.791-4-4v-143c0-2.209,1.791-4,4-4h229
			c2.209,0,4,1.791,4,4V270.5z"/>
		<path fill="#53B8BE" d="M366,123.5H137c-2.209,0-4,1.791-4,4V257h237V127.5C370,125.291,368.209,123.5,366,123.5z"/>
		<rect x="142" y="136" fill="#FFFFFF" width="218" height="111"/>
		<polygon fill="#F2F2F2" points="360,247 164,136 360,136 		"/>
		<rect x="176.667" y="81.333" fill="#AD4F3C" width="193" height="15.333"/>
		<ellipse fill="#AE503B" cx="137.896" cy="140.667" rx="16.562" ry="15.333"/>
		<ellipse fill="#344757" cx="170.686" cy="140.667" rx="16.563" ry="15.333"/>
		<ellipse fill="#AE503B" cx="203.477" cy="140.667" rx="16.562" ry="15.333"/>
		<ellipse fill="#344757" cx="236.267" cy="140.667" rx="16.562" ry="15.333"/>
		<ellipse fill="#AE503B" cx="269.058" cy="140.667" rx="16.562" ry="15.333"/>
		<ellipse fill="#344757" cx="301.848" cy="140.667" rx="16.562" ry="15.333"/>
		<ellipse fill="#AE503B" cx="334.637" cy="140.667" rx="16.562" ry="15.333"/>
		<ellipse fill="#344757" cx="367.427" cy="140.667" rx="16.562" ry="15.333"/>
		<g>
			<path fill="#DA6349" d="M165.352,88c-9.817,0-19.635,0-29.452,0c-4.969,17.444-9.937,34.889-14.906,52.333
				c11.071,0,22.142,0,33.212,0C157.92,122.889,161.636,105.444,165.352,88z"/>
			<path fill="#425A74" d="M194.508,88c-9.817,0-19.634,0-29.452,0c-3.729,17.444-7.458,34.889-11.186,52.333
				c11.07,0,22.141,0,33.211,0C189.557,122.889,192.032,105.444,194.508,88z"/>
			<path fill="#DA6349" d="M223.663,88c-9.818,0-19.635,0-29.453,0c-2.487,17.444-4.976,34.889-7.463,52.333
				c11.071,0,22.141,0,33.212,0C221.192,122.889,222.428,105.444,223.663,88z"/>
			<path fill="#425A74" d="M252.816,88c-9.817,0-19.635,0-29.452,0c-1.248,17.444-2.496,34.889-3.741,52.333
				c11.071,0,22.141,0,33.211,0C252.826,122.889,252.822,105.444,252.816,88z"/>
			<path fill="#DA6349" d="M281.971,88c-9.816,0-19.634,0-29.45,0c-0.008,17.444-0.015,34.889-0.02,52.333
				c11.069,0,22.14,0,33.209,0C284.463,122.889,283.218,105.444,281.971,88z"/>
			<path fill="#425A74" d="M311.125,88c-9.816,0-19.632,0-29.448,0c1.231,17.445,2.467,34.889,3.702,52.333
				c11.069,0,22.14,0,33.209,0C316.096,122.89,313.615,105.444,311.125,88z"/>
			<path fill="#DA6349" d="M340.281,88c-9.817,0-19.634,0-29.451,0c2.474,17.444,4.95,34.889,7.423,52.333
				c11.07,0,22.142,0,33.212,0C347.737,122.889,344.009,105.444,340.281,88z"/>
			<path fill="#425A74" d="M369.436,88c-9.817,0-19.635,0-29.452,0c3.716,17.444,7.434,34.888,11.146,52.333
				c11.07,0,22.142,0,33.212,0C379.373,122.889,374.404,105.444,369.436,88z"/>
		</g>
		<g>
			<rect x="229" y="187.833" fill="#344757" width="46.5" height="60"/>
			<rect x="235" y="192.667" fill="#FFFFFF" width="34.5" height="24"/>
			<g>
				<polygon fill="#334657" points="242.152,215.052 241.514,214.282 252.506,205.18 262.326,213.621 261.674,214.379 
					252.494,206.488 				"/>
			</g>
			<rect x="239.5" y="213.833" fill="#D75D46" width="26" height="11.167"/>
			<rect x="231.667" y="222.834" fill="#68C5C4" width="1.833" height="5"/>
		</g>
		<g>
			<rect x="157.5" y="169.333" fill="#344757" width="57" height="64.5"/>
			<rect x="161.329" y="173.667" fill="#D9FFFF" width="49.342" height="55.833"/>
			<rect x="155.833" y="233.667" fill="#51B8BD" width="60.5" height="3.5"/>
		</g>
		<g>
			<rect x="289.5" y="169.333" fill="#344757" width="57" height="64.5"/>
			<rect x="293.329" y="173.667" fill="#D9FFFF" width="49.342" height="55.833"/>
			<rect x="287.834" y="233.667" fill="#51B8BD" width="60.5" height="3.5"/>
		</g>
		<rect x="218.917" y="295.315" fill="#F2F2F2" width="66.113" height="5.159"/>
	</g>
	<path fill="#FFFBF1" d="M182.375,60.5c-1.642,0-3.216,0.288-4.689,0.795c0.029-0.471,0.064-0.941,0.064-1.42
		c0-11.253-8.171-20.375-18.25-20.375c-7.588,0-14.09,5.171-16.843,12.528C140.138,43.925,132.187,38,122.75,38
		C111.29,38,102,46.73,102,57.5c0,1.242,0.137,2.452,0.373,3.629c-0.656-0.077-1.319-0.129-1.998-0.129
		C91.607,61,84.5,67.604,84.5,75.75s7.107,14.75,15.875,14.75c1.137,0,2.244-0.116,3.312-0.327
		C105.672,100.35,114.18,108,124.375,108c5.954,0,11.329-2.613,15.169-6.811c3.944,5.332,10.402,8.811,17.706,8.811
		c11.724,0,21.276-8.957,21.729-20.17c1.092,0.265,2.225,0.42,3.396,0.42c8.077,0,14.625-6.66,14.625-14.875
		S190.452,60.5,182.375,60.5z"/>
	<path fill="#D7D4CA" d="M176.145,72.352l-28.879-52.937c-1.128-1.899-3.583-2.524-5.482-1.396l-29.205,16.23
		c-1.899,1.128-2.524,3.583-1.396,5.482l13.111,24.033l-14.544-5.641L100,82.375L151.75,102l5.584-14.487l17.416-9.679
		C176.649,76.705,177.274,74.25,176.145,72.352z"/>
	<g>
		<path fill="#54BFD3" d="M174.395,67.852c1.129,1.898,0.504,4.354-1.395,5.482l-29.205,16.23c-1.899,1.128-4.354,0.504-5.482-1.396
			l-28.88-52.936c-1.128-1.899-0.503-4.354,1.396-5.482l29.205-16.23c1.899-1.128,4.354-0.504,5.482,1.396L174.395,67.852z"/>
		<g>
			<path fill="#FFFFFF" d="M145.003,65c-1.237,0-2.436-0.657-3.072-1.818l-18-32.833c-0.929-1.695-0.309-3.822,1.386-4.751
				c1.695-0.93,3.823-0.31,4.751,1.386l18,32.833c0.929,1.695,0.309,3.822-1.386,4.751C146.149,64.862,145.572,65,145.003,65z"/>
		</g>
		<polygon fill="#405971" points="129.476,19.387 162.411,79.218 169.403,75.332 136.469,15.501 		"/>
		<circle fill="#F4EA19" cx="118.917" cy="38.584" r="3.083"/>
		<circle fill="#EA6363" cx="117.25" cy="35.917" r="3.083"/>
	</g>
	<g>
		<polygon fill="#BB4332" points="108,53.625 98.25,77.875 150,97.5 159.25,73.5 		"/>
		<g>
			<path fill="#DD6849" d="M112.362,58.98c-1.024-0.401-2.203,0.103-2.621,1.121l-5.607,13.674c-0.417,1.018,0.08,2.177,1.105,2.576
				l40.272,15.674c1.025,0.399,2.208-0.106,2.627-1.123l5.598-13.553c0.42-1.017-0.074-2.177-1.098-2.579L112.362,58.98z"/>
			<path fill="#FFFFFF" d="M146.24,92.661L146.24,92.661c-0.313,0-0.619-0.058-0.91-0.171l-40.272-15.674
				c-0.623-0.242-1.109-0.713-1.372-1.325c-0.262-0.612-0.268-1.289-0.014-1.907l5.607-13.674c0.503-1.227,2.023-1.884,3.266-1.396
				l40.276,15.79c0.621,0.243,1.106,0.715,1.368,1.328s0.265,1.291,0.01,1.907l-5.598,13.553
				C148.213,92.031,147.264,92.661,146.24,92.661z M111.631,59.342c-0.621,0-1.194,0.381-1.427,0.949l-5.607,13.674
				c-0.15,0.367-0.147,0.769,0.008,1.133c0.156,0.364,0.446,0.644,0.816,0.788l40.272,15.674c0.756,0.293,1.679-0.107,1.984-0.848
				l5.598-13.553c0.151-0.367,0.149-0.77-0.006-1.133c-0.155-0.364-0.444-0.644-0.813-0.789l-40.276-15.79
				C112.004,59.377,111.819,59.342,111.631,59.342z"/>
		</g>
		
			<ellipse transform="matrix(0.9337 0.3579 -0.3579 0.9337 35.6784 -41.1714)" fill="#FFFFFF" cx="129.052" cy="75.79" rx="5.877" ry="6"/>
		<g>
			<path fill="#B0433E" d="M127.271,79.867l0.301-0.79c-0.376-0.2-0.664-0.411-0.862-0.632c-0.199-0.221-0.334-0.509-0.406-0.86
				c-0.072-0.353-0.044-0.739,0.083-1.161l0.851,0.154c-0.1,0.447-0.111,0.8-0.031,1.058c0.116,0.366,0.323,0.623,0.62,0.774
				l0.958-2.515c-0.302-0.185-0.586-0.438-0.853-0.756c-0.198-0.237-0.318-0.505-0.359-0.806c-0.041-0.301-0.002-0.609,0.119-0.925
				c0.214-0.561,0.585-0.94,1.116-1.137c0.355-0.132,0.805-0.125,1.349,0.021l0.144-0.378l0.465,0.177l-0.144,0.378
				c0.442,0.219,0.756,0.491,0.939,0.819c0.236,0.418,0.294,0.891,0.174,1.419l-0.863-0.189c0.071-0.328,0.064-0.603-0.021-0.823
				c-0.085-0.222-0.246-0.409-0.483-0.56l-0.868,2.278c0.36,0.251,0.594,0.429,0.702,0.534c0.204,0.202,0.354,0.41,0.451,0.624
				c0.096,0.215,0.145,0.444,0.146,0.689c0.002,0.246-0.044,0.493-0.14,0.742c-0.208,0.547-0.556,0.937-1.043,1.17
				c-0.487,0.233-1.012,0.257-1.575,0.072l-0.304,0.799L127.271,79.867z M129.905,72.951c-0.325-0.069-0.614-0.04-0.867,0.092
				c-0.252,0.131-0.431,0.334-0.535,0.606c-0.103,0.27-0.112,0.523-0.031,0.762c0.081,0.239,0.281,0.48,0.6,0.726L129.905,72.951z
				 M128.291,78.587c0.322,0.079,0.626,0.042,0.914-0.109c0.288-0.153,0.495-0.396,0.624-0.732c0.109-0.287,0.126-0.544,0.05-0.773
				c-0.075-0.229-0.298-0.492-0.67-0.791L128.291,78.587z"/>
		</g>
		<g>
			<path fill="#FFFFFF" d="M146.121,82.934c-0.119,0-0.239-0.021-0.356-0.066l-6.717-2.559c-0.516-0.197-0.775-0.774-0.579-1.291
				c0.196-0.517,0.775-0.775,1.291-0.579l6.717,2.559c0.516,0.197,0.775,0.774,0.579,1.291
				C146.903,82.688,146.523,82.934,146.121,82.934z"/>
		</g>
		<g>
			<path fill="#FFFFFF" d="M118.772,72.938c-0.119,0-0.239-0.021-0.356-0.066l-6.717-2.559c-0.516-0.197-0.775-0.774-0.579-1.291
				s0.775-0.773,1.291-0.579l6.717,2.559c0.516,0.197,0.775,0.774,0.579,1.291C119.555,72.692,119.175,72.938,118.772,72.938z"/>
		</g>
	</g>
	<g>
		<circle fill="#E0B400" cx="144.083" cy="64.584" r="11.417"/>
		<circle fill="#F9E02C" cx="144.083" cy="64.584" r="9.583"/>
		<g>
			<path fill="#D85A57" d="M147.703,70.051l-0.767-1.089c-0.593,0.315-1.122,0.505-1.586,0.569
				c-0.464,0.065-0.958-0.012-1.482-0.228c-0.523-0.217-1.004-0.594-1.443-1.131l0.951-0.976c0.496,0.524,0.948,0.85,1.355,0.974
				c0.579,0.171,1.098,0.128,1.557-0.128l-2.441-3.469c-0.507,0.231-1.087,0.38-1.74,0.447c-0.483,0.05-0.939-0.029-1.368-0.24
				c-0.43-0.211-0.797-0.534-1.104-0.971c-0.545-0.774-0.713-1.594-0.502-2.461c0.14-0.581,0.545-1.163,1.216-1.743l-0.367-0.521
				l0.642-0.452l0.367,0.521c0.677-0.385,1.309-0.554,1.898-0.505c0.755,0.061,1.424,0.402,2.006,1.024l-1.007,0.961
				c-0.365-0.381-0.73-0.615-1.094-0.699c-0.365-0.085-0.75-0.039-1.156,0.139l2.211,3.142c0.645-0.25,1.083-0.398,1.315-0.447
				c0.444-0.089,0.849-0.101,1.213-0.039c0.364,0.063,0.707,0.201,1.029,0.415c0.323,0.214,0.604,0.492,0.846,0.836
				c0.531,0.754,0.734,1.553,0.609,2.395c-0.125,0.843-0.557,1.55-1.293,2.124l0.775,1.101L147.703,70.051z M140.989,60.513
				c-0.378,0.364-0.593,0.768-0.644,1.214c-0.051,0.446,0.056,0.856,0.32,1.232c0.261,0.371,0.584,0.608,0.968,0.712
				c0.383,0.104,0.876,0.057,1.477-0.145L140.989,60.513z M146.93,67.59c0.387-0.351,0.607-0.781,0.663-1.29
				c0.055-0.51-0.081-0.996-0.407-1.46c-0.279-0.396-0.6-0.644-0.965-0.747s-0.907-0.042-1.625,0.18L146.93,67.59z"/>
		</g>
	</g>
	<g>
		<ellipse fill="#52B9BE" cx="389.468" cy="230.558" rx="14.801" ry="23.134"/>
		<polygon fill="#4A270C" points="386.607,275.334 393.573,275.334 389.096,228.568 		"/>
		<ellipse fill="#425A74" cx="369.25" cy="245.334" rx="9.917" ry="15.5"/>
		<polygon fill="#4A270C" points="367.333,275.334 372,275.334 369,244.001 		"/>
		<ellipse fill="#425A74" cx="406.583" cy="248.359" rx="8.917" ry="13.937"/>
		<polygon fill="#4A270C" points="404.86,275.334 409.057,275.334 406.359,247.161 		"/>
	</g>
	<g>
		<g>
			<rect x="295" y="289.25" fill="#E9E9E9" width="3" height="1.5"/>
		</g>
		<g>
			<path fill="#E9E9E9" d="M424.261,290.75h-5.739v-1.5h5.739V290.75z M412.783,290.75h-5.739v-1.5h5.739V290.75z M401.305,290.75
				h-5.739v-1.5h5.739V290.75z M389.826,290.75h-5.739v-1.5h5.739V290.75z M378.348,290.75h-5.739v-1.5h5.739V290.75z
				 M366.87,290.75h-5.739v-1.5h5.739V290.75z M355.392,290.75h-5.739v-1.5h5.739V290.75z M343.913,290.75h-5.739v-1.5h5.739V290.75
				z M332.435,290.75h-5.739v-1.5h5.739V290.75z M320.957,290.75h-5.739v-1.5h5.739V290.75z M309.479,290.75h-5.739v-1.5h5.739
				V290.75z"/>
		</g>
		<g>
			<rect x="430" y="289.25" fill="#E9E9E9" width="3" height="1.5"/>
		</g>
	</g>
	<g>
		<g>
			<rect x="31.333" y="289.25" fill="#E9E9E9" width="3" height="1.5"/>
		</g>
		<g>
			<path fill="#E9E9E9" d="M169.841,290.75h-6.159v-1.5h6.159V290.75z M157.522,290.75h-6.159v-1.5h6.159V290.75z M145.203,290.75
				h-6.159v-1.5h6.159V290.75z M132.884,290.75h-6.159v-1.5h6.159V290.75z M120.565,290.75h-6.159v-1.5h6.159V290.75z
				 M108.247,290.75h-6.159v-1.5h6.159V290.75z M95.928,290.75h-6.159v-1.5h6.159V290.75z M83.609,290.75H77.45v-1.5h6.159V290.75z
				 M71.29,290.75h-6.159v-1.5h6.159V290.75z M58.971,290.75h-6.159v-1.5h6.159V290.75z M46.652,290.75h-6.159v-1.5h6.159V290.75z"
				/>
		</g>
		<g>
			<rect x="176" y="289.25" fill="#E9E9E9" width="3" height="1.5"/>
		</g>
	</g>
	<g>
		<path fill="#E9E9E9" d="M350.75,409.75c-0.777,0-1.54-0.031-2.268-0.093l0.127-1.494c0.686,0.058,1.405,0.087,2.141,0.087V409.75z
			 M342.446,408.212c-1.961-0.854-3.67-2.086-5.079-3.661l1.117-1c1.266,1.413,2.8,2.519,4.562,3.286L342.446,408.212z
			 M334.133,399.239c-0.704-1.722-1.271-3.707-1.687-5.902l1.475-0.279c0.396,2.097,0.935,3.985,1.601,5.613L334.133,399.239z
			 M331.696,387.3c-0.132-1.868-0.196-3.848-0.196-6.05h1.5c0,2.167,0.062,4.111,0.192,5.944L331.696,387.3z"/>
	</g>
	<g>
		<path fill="#E9E9E9" d="M377.251,202.781V197h1.5v2.982c0.099-0.057,0.203-0.116,0.312-0.177l0.727,1.312
			c-0.849,0.47-1.351,0.823-1.355,0.827L377.251,202.781z M395.884,201.267l0.429-0.617l0.488-0.569l-0.488,0.569l0.491-0.567
			L395.884,201.267z M385.171,199.017l-0.336-1.461c1.265-0.291,2.507-0.438,3.691-0.438c0.004,0,0.008,0,0.012,0
			c0.878,0,1.74,0.08,2.562,0.239l-0.285,1.473c-0.731-0.141-1.515-0.183-2.288-0.212
			C387.454,198.617,386.325,198.752,385.171,199.017z M378.751,191h-1.5v-6h1.5V191z M378.751,179h-1.5v-6h1.5V179z M378.751,167
			h-1.5v-6h1.5V167z"/>
	</g>
	<g>
		<path fill="#E9E9E9" d="M101.424,159.75h-6.019v-1.5h6.019V159.75z M89.393,159.75h-6.013v-1.5h6.013V159.75z M77.365,159.75
			h-6.03v-1.5h6.03V159.75z M107.615,158.149l-1.115-1.003c0.839-0.934,1.455-2.672,2.175-5.176l1.441,0.415
			C109.316,155.163,108.651,156.997,107.615,158.149z M111.689,146.565l-1.451-0.379c0.445-1.704,0.958-3.694,1.503-5.818
			l1.453,0.372C112.648,142.867,112.135,144.859,111.689,146.565z M114.679,134.912l-1.454-0.369l1.475-5.826l1.454,0.367
			L114.679,134.912z M117.624,123.252l-1.455-0.365c0.846-3.364,1.418-5.65,1.437-5.729l0.727,0.177l0.593-0.462
			C119.154,117.165,119.154,117.165,117.624,123.252z"/>
	</g>
	<g>
		<path fill="#E9E9E9" d="M180.594,44.857c-0.878-1.819-1.9-3.494-3.038-4.979l1.19-0.912c1.2,1.566,2.276,3.329,3.198,5.239
			L180.594,44.857z M173.507,35.726c-1.522-1.213-3.19-2.215-4.958-2.979l0.595-1.377c1.889,0.816,3.671,1.887,5.297,3.183
			L173.507,35.726z M162.984,31.2c-0.85-0.109-1.422-0.117-1.577-0.117h-0.449l-0.285-0.396l-2.007-3.752l1.322-0.707l1.8,3.365
			c0.342,0.013,0.807,0.045,1.386,0.119L162.984,31.2z M155.837,21.645l-2.83-5.291l1.322-0.708l2.83,5.291L155.837,21.645z"/>
	</g>
</g>
</svg>
