<?xml version="1.0" encoding="utf-8"?>
<!-- Generator: Adobe Illustrator 16.0.0, SVG Export Plug-In . SVG Version: 6.00 Build 0)  -->
<!DOCTYPE svg PUBLIC "-//W3C//DTD SVG 1.1//EN" "http://www.w3.org/Graphics/SVG/1.1/DTD/svg11.dtd">
<svg version="1.1" id="Layer_1" xmlns="http://www.w3.org/2000/svg" xmlns:xlink="http://www.w3.org/1999/xlink" x="0px" y="0px"
	 width="457px" height="587px" viewBox="0 0 457 587" enable-background="new 0 0 457 587" xml:space="preserve">
<path fill="#ECBB93" d="M93,161.333c0,0-47.667-39.667-53-44.333s-7.333-18.667,4.667-34S73.333,77,78,80.333s14,10,14,10
	L93,161.333z"/>
<path fill="#F6D5AA" d="M194.667,515.666c0,0-34-7.333-62.667-29.333s-56-56.669-67.333-86.001c0,0-4.667-13.333-14-28.666
	s-33.333-59.333-33.333-59.333L140.667,315l146.667,50.666L328.667,479L194.667,515.666z"/>
<path fill="#ECBB93" d="M94.667,329.666c0,0-15.334,3.333-27.333,22S54.667,377,54.667,377s-32-53.334-37.333-64.667
	c4-13.333,26-14.667,26-14.667l6-19.333c0,0-10-18-10.667-24s30-34.667,30-34.667L54,193l44-15l223.334,81l23.333,49.333l-88,96
	c0,0-16.667-9.333-122-19.333C105.334,348.333,94.667,329.666,94.667,329.666z"/>
<path fill="#285B62" d="M311.334,370.667c0,8.284-6.716,15-15,15H103c-8.284,0-15-6.716-15-15V38c0-8.284,6.716-15,15-15h193.333
	c8.284,0,15,6.716,15,15V370.667z"/>
<g>
	<rect x="103.333" y="47.667" fill="#37BBC9" width="193.333" height="296"/>
	<g>
		<rect x="130.425" y="150.25" fill="#E4D5CC" width="136.75" height="79.25"/>
		<rect x="180.55" y="165.25" fill="#455B60" width="36.5" height="64"/>
		<rect x="182" y="168.5" fill="#336C74" width="33" height="60.75"/>
		<rect x="127.675" y="228.25" fill="#E1392D" width="142.25" height="4"/>
		<rect x="123.425" y="231.75" fill="#D02528" width="150.75" height="4"/>
		<rect x="120.425" y="235.5" fill="#D02528" width="156.75" height="2.25"/>
		<g>
			<rect x="136.25" y="212.25" fill="#C3AC9D" width="41.25" height="2.5"/>
			<rect x="137" y="209.094" fill="#FFFDFD" width="39.75" height="2.812"/>
			<rect x="137" y="162.844" fill="#FFFDFD" width="39.75" height="2.812"/>
			<rect x="138" y="164.143" fill="#FFFDFD" width="37.75" height="45.715"/>
			<g>
				<rect x="140.5" y="175.643" fill="#9EC7C1" width="32.75" height="33.215"/>
				<rect x="141.75" y="176.5" fill="#A1D6D6" width="30.75" height="31.25"/>
			</g>
			<g>
				<rect x="140.5" y="166.893" fill="#9EC7C1" width="32.75" height="5.857"/>
				<rect x="141.75" y="167.75" fill="#A1D6D6" width="30.75" height="3.893"/>
			</g>
		</g>
		<g>
			<rect x="220.875" y="212.25" fill="#C3AC9D" width="41.25" height="2.5"/>
			<rect x="221.625" y="209.094" fill="#FFFDFD" width="39.75" height="2.812"/>
			<rect x="221.625" y="162.844" fill="#FFFDFD" width="39.75" height="2.812"/>
			<rect x="222.625" y="164.143" fill="#FFFDFD" width="37.75" height="45.715"/>
			<g>
				<rect x="225.125" y="175.643" fill="#9EC7C1" width="32.75" height="33.215"/>
				<rect x="226.375" y="176.5" fill="#A1D6D6" width="30.75" height="31.25"/>
			</g>
			<g>
				<rect x="225.125" y="166.893" fill="#9EC7C1" width="32.75" height="5.857"/>
				<rect x="226.375" y="167.75" fill="#A1D6D6" width="30.75" height="3.893"/>
			</g>
		</g>
		<rect x="133.75" y="79.25" fill="#FEE4D9" width="133" height="32.25"/>
		<rect x="139.75" y="84.75" fill="#BA2225" width="121" height="21.25"/>
		<rect x="141.5" y="86.417" fill="#EB4725" width="118" height="17.333"/>
		<g>
			<g>
				<path fill="#FFFDFD" d="M143.73,142.833c-3.48,0-5.22,0-8.701,0c2.136-10.554,4.552-21.03,6.687-31.584
					c3.101,0,4.625,0.001,7.663,0.001C147.701,121.82,145.409,132.264,143.73,142.833z"/>
				<path fill="#FFFDFD" d="M161.135,142.834c-3.48,0-5.221,0-8.702,0c1.351-10.552,3.157-21.031,4.51-31.583
					c3.021,0,4.528,0,7.582,0C163.492,121.79,162.169,132.295,161.135,142.834z"/>
				<path fill="#FFFDFD" d="M178.539,142.834c-3.48,0-5.22,0-8.701,0c0.765-10.531,1.646-21.053,2.413-31.583
					c3.133,0,4.75,0,7.962,0C179.653,121.778,179.098,132.306,178.539,142.834z"/>
				<path fill="#FFFDFD" d="M195.945,142.834c-3.481,0-5.222,0-8.703,0c0.336-10.528,0.669-21.056,1.005-31.583
					c3.213,0,4.82,0,8.033,0C196.167,121.779,196.055,132.306,195.945,142.834z"/>
				<path fill="#FFFDFD" d="M213.349,142.834c-3.481,0-5.221,0-8.702,0c-0.112-10.528-0.223-21.056-0.335-31.583
					c3.213,0,4.82,0,8.033,0C212.68,121.778,213.012,132.306,213.349,142.834z"/>
				<path fill="#FFFDFD" d="M230.752,142.834c-3.48,0-5.221,0-8.702,0c-0.558-10.528-1.114-21.056-1.673-31.583
					c3.213,0,4.828,0,7.965,0C229.11,121.781,229.986,132.303,230.752,142.834z"/>
				<path fill="#FFFDFD" d="M248.156,142.834c-3.48,0-5.221,0-8.701,0c-1.035-10.539-2.339-21.045-3.375-31.583
					c3.06,0,4.574,0,7.604,0C245.025,121.802,246.813,132.282,248.156,142.834z"/>
				<path fill="#FFFDFD" d="M265.561,142.834c-3.48,0-5.222,0-8.702,0c-1.666-10.568-3.927-21.016-5.593-31.583
					c3.045,0,4.574,0,7.681,0C261.061,121.804,263.445,132.282,265.561,142.834z"/>
			</g>
			<g>
				<path fill="#EB4725" d="M135.028,142.834c-3.48,0-5.221,0-8.701,0c2.391-10.563,5.116-21.02,7.506-31.583
					c3.213,0,4.781,0,7.882,0C139.581,121.805,137.164,132.28,135.028,142.834z"/>
				<path fill="#EB4725" d="M152.433,142.834c-3.48,0-5.221,0-8.701,0c1.676-10.57,3.97-21.014,5.648-31.583
					c3.037,0,4.542,0,7.563,0C155.589,121.802,153.786,132.282,152.433,142.834z"/>
				<path fill="#EB4725" d="M169.838,142.834c-3.48,0-5.222,0-8.702,0c1.034-10.539,2.356-21.044,3.391-31.583
					c3.053,0,4.59,0,7.723,0C171.484,121.781,170.604,132.303,169.838,142.834z"/>
				<path fill="#EB4725" d="M187.241,142.834c-3.48,0-5.221,0-8.701,0c0.558-10.528,1.116-21.056,1.673-31.583
					c3.212,0,4.819,0,8.031,0C187.91,121.778,187.577,132.306,187.241,142.834z"/>
				<path fill="#EB4725" d="M204.647,142.834c-3.48,0-5.222,0-8.703,0c0.113-10.528,0.22-21.055,0.335-31.583
					c3.213,0,4.819,0,8.032,0C204.423,121.778,204.533,132.306,204.647,142.834z"/>
				<path fill="#EB4725" d="M222.05,142.834c-3.48,0-5.221,0-8.701,0c-0.335-10.528-0.668-21.055-1.003-31.583
					c3.212,0,4.817,0,8.03,0C220.936,121.778,221.491,132.306,222.05,142.834z"/>
				<path fill="#EB4725" d="M239.455,142.834c-3.48,0-5.22,0-8.7,0c-0.772-10.53-1.644-21.053-2.41-31.583c3.136,0,4.676,0,7.735,0
					C237.116,121.789,238.42,132.295,239.455,142.834z"/>
				<path fill="#EB4725" d="M256.858,142.834c-3.48,0-5.222,0-8.702,0c-1.343-10.552-3.131-21.032-4.473-31.584
					c3.029,0,4.537,0,7.582,0C252.932,121.818,255.192,132.266,256.858,142.834z"/>
				<path fill="#EB4725" d="M274.261,142.834c-3.48,0-5.22,0-8.7,0c-2.115-10.552-4.5-21.03-6.614-31.583c3.105,0,4.674,0,7.887,0
					C269.202,121.812,271.892,132.272,274.261,142.834z"/>
			</g>
		</g>
		<path fill="#C72C28" d="M126.5,142.75v8h0.014c0.145,3.611,3.371,6.5,7.341,6.5h3.541c2.683,0,5.023-1.323,6.308-3.292
			c1.285,1.969,3.625,3.292,6.308,3.292h3.541c2.683,0,5.023-1.323,6.308-3.292c1.285,1.969,3.625,3.292,6.308,3.292h3.541
			c2.683,0,5.023-1.323,6.308-3.292c1.285,1.969,3.625,3.292,6.308,3.292h3.541c2.683,0,5.023-1.323,6.308-3.292
			c1.285,1.969,3.625,3.292,6.308,3.292h3.541c2.683,0,5.023-1.323,6.308-3.292c1.285,1.969,3.625,3.292,6.308,3.292h3.541
			c2.683,0,5.023-1.323,6.308-3.292c1.285,1.969,3.625,3.292,6.308,3.292h3.541c2.683,0,5.023-1.323,6.308-3.292
			c1.284,1.969,3.625,3.292,6.308,3.292h3.541c2.683,0,5.023-1.323,6.308-3.292c1.284,1.969,3.625,3.292,6.308,3.292h3.541
			c3.97,0,7.196-2.889,7.341-6.5H274v-8H126.5z"/>
	</g>
	<g>
		<ellipse fill="#2D908E" cx="197.923" cy="315.906" rx="44.354" ry="5.32"/>
		<g>
			<path fill="#336A72" d="M228.167,306c0,4.971-4.029,9-9,9H180c-4.971,0-9-4.029-9-9v-40.333c0-4.971,4.029-9,9-9h39.167
				c4.971,0,9,4.029,9,9V306z"/>
			<circle fill="#FFFFFF" cx="189.75" cy="303.917" r="5.25"/>
			<circle fill="#FFFFFF" cx="211.333" cy="303.917" r="5.25"/>
			<path fill="#FFFFFF" d="M222.5,267.75v-3h-9.25v8.75h-38.083l9.386,22.667h31.781V273.5h-0.083v-5.75H222.5z M189.501,292h-3.167
				v-14.667h3.167V292z M195.334,292h-3.167v-14.667h3.167V292z M201.167,292H198v-14.667h3.167V292z M207,292h-3.167v-14.667H207
				V292z M212.833,292h-3.167v-14.667h3.167V292z"/>
		</g>
	</g>
</g>
<path fill="#F6D5AA" d="M62.333,169c8.274-8.062,23-12.667,30.667-7.667s13.667,11.333,18,15.667s6,18.333-4.333,28.667
	s-24.333,14.667-34,7.333s-15.666-14.667-17.333-16.667S49.333,181.667,62.333,169z"/>
<path fill="#F6D5AA" d="M47.667,227.333c8.274-8.062,22-12.667,29.667-7.667s26.667,20.667,31,25s7,17.333-3,28.333
	c-9.83,10.813-24.667,17.667-34.333,10.333s-28.666-25-30.333-27S34.667,240,47.667,227.333z"/>
<path fill="#F6D5AA" d="M25.992,286.045c8.274-8.062,22-12.667,29.667-7.667s26.667,20.667,31,25c4.333,4.333,7,17.333-3,28.333
	c-9.83,10.813-24.667,17.667-34.333,10.333c-9.667-7.333-28.666-25-30.333-27S12.992,298.713,25.992,286.045z"/>
<path fill="#ECBB93" d="M88.267,208.964c1.997-1.19,7.289-4.141,12.497-10.35c5.207-6.208,6.979-8.719,8.021-10.789
	c1.042-2.069-0.384-3.698-2.814-5.768s-3.818-3.795-8.678-4.83c-4.86-1.035-12.843,2.07-18.05,7.589s-5.901,17.248-3.124,19.317
	c2.777,2.07,6.248,4.484,7.636,5.175C85.144,210,86.532,210,88.267,208.964z"/>
<path fill="#FFEFDC" d="M89.333,208.667c1.917-1.15,6.999-4.001,12-10s6.703-8.426,7.703-10.426s-0.369-3.574-2.702-5.574
	S102.667,179,98,178s-12.333,2-17.333,7.333S75,202,77.667,204s6,4.333,7.333,5S87.667,209.667,89.333,208.667z"/>
<path fill="#ECBB93" d="M81.694,277.817c2.139-1.415,7.808-4.92,13.386-12.3c5.579-7.377,7.212-9.494,8.328-11.953
	c1.115-2.46-0.226-3.733-2.829-6.193c-2.604-2.459-4.917-4.285-10.123-5.514c-5.206-1.23-12.854,0.704-18.431,7.263
	c-5.578,6.56-6.321,20.498-3.347,22.957c2.975,2.46,6.693,5.33,8.181,6.15C78.347,279.046,79.835,279.046,81.694,277.817z"/>
<path fill="#FFEFDC" d="M82.594,276.883c2.052-1.32,7.49-4.59,12.841-11.475c5.352-6.883,6.918-8.857,7.989-11.152
	c1.07-2.295-0.217-3.483-2.714-5.778c-2.498-2.294-4.717-3.997-9.71-5.145c-4.994-1.147-12.33,0.656-17.681,6.776
	c-5.351,6.12-6.064,19.124-3.211,21.418c2.854,2.295,6.421,4.972,7.848,5.738C79.383,278.03,80.811,278.03,82.594,276.883z"/>
<path fill="#ECBB93" d="M61.317,335.534c2.031-1.337,7.413-4.647,12.71-11.619c5.296-6.972,6.847-8.971,7.907-11.294
	c1.059-2.325-0.214-3.527-2.686-5.851c-2.472-2.324-6.06-5.307-11.002-6.468c-4.943-1.163-12.204,0.665-17.5,6.861
	c-5.296,6.198-6.001,19.365-3.178,21.689c2.825,2.324,7.746,6.293,9.159,7.068C58.139,336.695,59.551,336.695,61.317,335.534z"/>
<path fill="#FFEFDC" d="M62.694,334.909c1.994-1.282,7.278-4.458,12.478-11.145s6.723-8.604,7.763-10.832
	c1.04-2.229-0.21-3.383-2.637-5.611s-5.949-5.089-10.801-6.203c-4.853-1.115-11.981,0.638-17.181,6.581
	c-5.199,5.944-5.892,18.573-3.12,20.803c2.773,2.229,7.605,6.035,8.992,6.779C59.574,336.022,60.961,336.022,62.694,334.909z"/>
<path fill="#F6D5AA" d="M297.5,480.5c0,0-43-22.5-46.5-60s48.5-94.5,77-119c0,0-25.5-42.5-32-66s-8.5-49.5,15.5-68.5
	c0,0,85.5,107,87,109s-7,32-15,59.5S367,397.5,365,404s-12.5,22-11,28.5s9,25,9,25L297.5,480.5z"/>
<path fill="#ECBB93" d="M398.5,276c-1.5-2-87-109-87-109c-7.229,5.723-12.086,12.084-15.186,18.818L390,271.5
	c0,0-4.239,34.623-3.512,53.68C393.46,300.97,399.813,277.751,398.5,276z"/>
<path fill="#FFEFDC" d="M311,182c2,5.5,7.5,14.5,11.5,19c3.551,3.995,12.215,4.828,17.616,1.819
	c-10.99-13.759-20.529-25.698-25.321-31.696C311.087,174.323,309.359,177.489,311,182z"/>
<path fill="#F9E0C0" d="M318.733,309.86C289.568,337.31,247.854,386.784,251,420.5c1.057,11.316,5.712,21.265,11.695,29.643
	C276.719,465.283,285.5,466.5,285.5,466.5c-26.166-41.5-24.499-55.833-10.166-86.833
	C287.553,353.239,309.277,322.532,318.733,309.86z"/>
<polygon fill="#FFFFFD" points="188.5,538 181.5,518 367.5,451 378,471.5 "/>
<polygon fill="#D13A28" points="383,467 178.5,538.5 194,587 438.5,587 "/>
<circle fill="#B82D25" cx="218" cy="559.5" r="17"/>
</svg>
