<?xml version="1.0" encoding="utf-8"?>
<!-- Generator: Adobe Illustrator 16.0.0, SVG Export Plug-In . SVG Version: 6.00 Build 0)  -->
<!DOCTYPE svg PUBLIC "-//W3C//DTD SVG 1.1//EN" "http://www.w3.org/Graphics/SVG/1.1/DTD/svg11.dtd">
<svg version="1.1" id="Capa_1" xmlns="http://www.w3.org/2000/svg" xmlns:xlink="http://www.w3.org/1999/xlink" x="0px" y="0px"
	 width="565px" height="135px" viewBox="0 0 565 135" enable-background="new 0 0 565 135" xml:space="preserve">
<g>
	<g>
		<path fill="#252961" d="M29.975,24.545c-0.35,0.574-0.953,1.04-1.817,1.404c-0.864,0.361-1.769,0.544-2.706,0.544
			c-1.769,0-3.154-0.443-4.171-1.327c-1.01-0.882-1.514-2.14-1.514-3.763c0-1.902,0.711-3.39,2.137-4.46
			c1.423-1.072,3.449-1.611,6.078-1.611c0.451,0,0.979,0.081,1.592,0.231c0-1.929-1.219-2.896-3.662-2.896
			c-1.441,0-2.646,0.238-3.615,0.721l-0.831-2.976c1.319-0.633,2.886-0.95,4.705-0.95c2.502,0,4.337,0.57,5.503,1.709
			c1.163,1.142,1.747,3.298,1.747,6.477v3.507c0,2.186,0.438,3.561,1.319,4.124c-0.316,0.552-0.672,0.892-1.058,1.021
			c-0.39,0.127-0.833,0.191-1.335,0.191c-0.551,0-1.045-0.206-1.484-0.613C30.421,25.472,30.126,25.03,29.975,24.545z
			 M29.608,18.462c-0.656-0.133-1.146-0.198-1.475-0.198c-3.021,0-4.537,0.988-4.537,2.972c0,1.472,0.854,2.205,2.56,2.205
			c2.3,0,3.452-1.148,3.452-3.448V18.462z"/>
		<path fill="#252961" d="M48.811,26.187v-0.999c-0.318,0.349-0.854,0.653-1.61,0.913c-0.757,0.26-1.537,0.393-2.345,0.393
			c-2.287,0-4.089-0.725-5.401-2.174c-1.315-1.455-1.969-3.475-1.969-6.069c0-2.598,0.75-4.708,2.257-6.34
			c1.509-1.63,3.396-2.446,5.663-2.446c1.248,0,2.382,0.257,3.405,0.769V3.657l3.83-0.918v23.448H48.811z M48.811,13.697
			c-0.817-0.653-1.673-0.981-2.562-0.981c-1.53,0-2.711,0.466-3.537,1.404c-0.831,0.934-1.243,2.276-1.243,4.022
			c0,3.413,1.646,5.117,4.936,5.117c0.366,0,0.819-0.109,1.355-0.329c0.534-0.217,0.885-0.444,1.05-0.667V13.697z"/>
		<path fill="#252961" d="M56.152,25.13l1.362-3.052c1.144,0.913,2.439,1.363,3.881,1.363c1.49,0,2.236-0.531,2.236-1.592
			c0-0.625-0.225-1.136-0.675-1.532c-0.447-0.397-1.321-0.871-2.621-1.411c-2.829-1.173-4.244-2.818-4.244-4.936
			c0-1.418,0.54-2.521,1.624-3.319c1.084-0.79,2.47-1.187,4.152-1.187c1.71,0,3.315,0.388,4.814,1.151l-1.103,2.974
			c-0.842-0.716-2.001-1.072-3.493-1.072c-1.341,0-2.009,0.531-2.009,1.591c0,0.423,0.219,0.801,0.658,1.136
			c0.44,0.337,1.379,0.788,2.819,1.358c1.44,0.566,2.479,1.255,3.111,2.059c0.634,0.809,0.95,1.781,0.95,2.926
			c0,1.526-0.563,2.721-1.693,3.598c-1.128,0.869-2.663,1.309-4.606,1.309c-1.091,0-1.964-0.088-2.627-0.27
			C58.029,26.047,57.184,25.682,56.152,25.13z"/>
		<path fill="#252961" d="M81.946,26.202v-1.378c-0.541,0.458-1.287,0.851-2.239,1.179c-0.949,0.325-1.824,0.491-2.62,0.491
			c-3.813,0-5.716-2.023-5.716-6.068V9.774h3.833v10.358c0,2.104,0.943,3.154,2.831,3.154c0.873,0,1.679-0.224,2.426-0.671
			c0.746-0.447,1.239-0.97,1.485-1.563V9.774h3.83v16.427H81.946z"/>
		<path fill="#252961" d="M109.613,26.187V15.902c0-2.155-0.966-3.233-2.896-3.233c-0.576,0-1.127,0.169-1.659,0.504
			c-0.533,0.34-0.906,0.729-1.118,1.166v11.849h-3.833V15.305c0-0.804-0.249-1.447-0.749-1.926c-0.5-0.472-1.205-0.71-2.116-0.71
			c-0.477,0-1,0.181-1.568,0.537c-0.571,0.357-0.98,0.75-1.234,1.179v11.802h-3.833V9.774h2.637l0.78,1.439
			c1.063-1.165,2.437-1.75,4.126-1.75c2.175,0,3.814,0.595,4.918,1.779c0.479-0.541,1.149-0.97,2.007-1.295
			c0.855-0.321,1.714-0.483,2.573-0.483c1.83,0,3.251,0.527,4.268,1.573c1.02,1.046,1.526,2.485,1.526,4.311v10.838H109.613z"/>
	</g>
	<g>
		<path fill="#F26522" d="M49.988,106.104h-5.992L11.773,33.469h18.242L47.059,77.01l18.309-43.541H83.01L49.988,106.104z"/>
		<path fill="#F26522" d="M87.254,100.178L93.18,86.93c4.971,3.95,10.585,5.925,16.844,5.925c6.48,0,9.72-2.308,9.72-6.923
			c0-2.708-0.977-4.928-2.929-6.658c-1.953-1.731-5.748-3.772-11.385-6.125c-12.294-5.104-18.442-12.25-18.442-21.438
			c0-6.169,2.353-10.974,7.057-14.414c4.705-3.439,10.719-5.159,18.042-5.159c7.412,0,14.38,1.664,20.905,4.993l-4.794,12.915
			c-3.639-3.105-8.699-4.659-15.179-4.659c-5.814,0-8.721,2.307-8.721,6.924c0,1.82,0.954,3.462,2.862,4.926
			c1.909,1.465,5.992,3.429,12.25,5.893c6.258,2.464,10.763,5.448,13.515,8.954s4.128,7.745,4.128,12.716
			c0,6.613-2.452,11.818-7.357,15.612c-4.904,3.795-11.572,5.692-20.006,5.692c-4.749,0-8.555-0.389-11.417-1.166
			C95.41,104.162,91.737,102.575,87.254,100.178z"/>
		<path fill="#F26522" d="M152.217,46.851h-8.255V33.469h8.255V18.955l16.645-6.125v20.639h19.574v13.382h-19.574v31.225
			c0,5.104,0.799,8.71,2.396,10.818c1.598,2.108,4.394,3.162,8.389,3.162c3.994,0,7.723-1.087,11.185-3.262v15.312
			c-3.861,1.331-9.367,1.997-16.511,1.997c-7.103,0-12.562-2.009-16.378-6.024c-3.818-4.018-5.726-9.732-5.726-17.144V46.851z"/>
		<path fill="#F26522" d="M198.405,68.954c0-10.874,3.14-19.729,9.42-26.563c6.281-6.835,14.569-10.253,24.867-10.253
			c10.829,0,19.24,3.285,25.232,9.854c5.992,6.568,8.988,15.556,8.988,26.963c0,11.362-3.052,20.395-9.154,27.097
			c-6.104,6.701-14.458,10.053-25.066,10.053c-10.83,0-19.252-3.385-25.266-10.153C201.412,89.183,198.405,80.184,198.405,68.954z
			 M215.715,68.954c0,15.712,5.659,23.568,16.977,23.568c5.193,0,9.309-2.042,12.35-6.125c3.04-4.084,4.56-9.898,4.56-17.443
			c0-15.489-5.636-23.235-16.91-23.235c-5.193,0-9.321,2.042-12.384,6.126C217.246,55.929,215.715,61.631,215.715,68.954z"/>
		<path fill="#F26522" d="M320.757,48.981c-2.976-1.953-6.237-2.93-9.786-2.93c-3.862,0-7.291,1.754-10.287,5.26
			s-4.493,7.79-4.493,12.849v40.611h-16.645V33.469h16.645v6.524c4.659-5.236,10.852-7.855,18.575-7.855
			c5.68,0,10.029,0.865,13.048,2.596L320.757,48.981z"/>
		<path fill="#F26522" d="M400.766,74.213h-50.931c0.311,5.682,2.264,10.099,5.858,13.249c3.596,3.15,8.434,4.728,14.514,4.728
			c7.59,0,13.36-1.976,17.31-5.926l6.458,12.717c-5.858,4.748-14.603,7.123-26.231,7.123c-10.875,0-19.473-3.185-25.798-9.553
			c-6.324-6.37-9.487-15.258-9.487-26.665c0-11.229,3.473-20.327,10.419-27.296c6.946-6.968,15.279-10.452,25-10.452
			c10.341,0,18.641,3.085,24.899,9.254c6.258,6.169,9.388,14.025,9.388,23.567C402.164,67.002,401.698,70.086,400.766,74.213z
			 M350.433,61.697h35.019c-1.153-10.43-6.923-15.646-17.309-15.646C358.645,46.052,352.742,51.268,350.433,61.697z"/>
	</g>
	<path fill="#F26522" d="M547.868,82.746h-58.231c0,0-6.794,0.35-5.958-4.924c1.342-8.449,72.565-14.885,72.565-14.885l0.146-33.453
		h-72.08c0,0-0.355-6.392-2.131-7.457l-0.354-7.102h-17.754v10.297h7.102l11.007,42.255c0,0-8.943,2.799-7.457,14.558
		c1.303,10.297,16.688,8.521,16.688,8.521h4.1c-5.118,0.561-9.101,4.895-9.101,10.162c0,5.65,4.579,10.228,10.228,10.228
		c5.647,0,10.229-4.577,10.229-10.228c0-5.268-3.984-9.602-9.103-10.162h40.229c-5.118,0.561-9.101,4.895-9.101,10.162
		c0,5.65,4.579,10.228,10.228,10.228c5.649,0,10.229-4.577,10.229-10.228c0-5.268-3.983-9.602-9.102-10.162h13.658L547.868,82.746z"
		/>
	<circle fill="#F26522" cx="477.498" cy="75.711" r="53.549"/>
	<path fill="#FFFFFF" d="M482.591,22.409c-1.678-0.159-3.375-0.248-5.094-0.248c-4.637,0-9.135,0.59-13.426,1.698v1.364h7.102
		l11.007,42.255c0,0-8.943,2.799-7.457,14.558c1.303,10.297,16.688,8.521,16.688,8.521h4.1c-5.118,0.561-9.101,4.895-9.101,10.162
		c0,5.65,4.579,10.228,10.228,10.228c5.647,0,10.229-4.577,10.229-10.228c0-5.268-3.984-9.602-9.103-10.162h31.182
		c0.729-2.532,1.276-5.14,1.627-7.812h-40.936c0,0-6.794,0.35-5.958-4.924c0.792-4.99,25.973-9.28,46.45-11.954
		c-2.885-15.516-12.451-28.674-25.609-36.383h-20.209C484.311,29.485,484.008,24.123,482.591,22.409z"/>
</g>
</svg>
